<svg xmlns="http://www.w3.org/2000/svg" xmlns:xlink="http://www.w3.org/1999/xlink" width="136.477" height="118.198" viewBox="0 0 136.477 118.198">
  <defs>
    <clipPath id="clip-path">
      <rect width="136.477" height="118.198" fill="none"/>
    </clipPath>
  </defs>
  <g id="icn_data-science" clip-path="url(#clip-path)">
    <path id="Caminho_58" data-name="Caminho 58" d="M1146.762,4011.406l-13.887-7.372-.145-7.126-12.713-3.711-11.1,7.7-9.946,19.341-12.057,2.885-8.193,36.256,12.977,30.358,6.126-17.9,17.863,14.684-7.73,7.918-6.408-1.159-3.879,4.733,3.211,6.718,0-6.429,4.518-1.391,2.667,11.2,4.86-5.489-3.862,1.557,1.116-8.306,3.852-.977,3.414,6.14,2.036-7.787-5.258-.558,4.393-7.473,19.263-5.274,10.984,7.319-1.818,10.85,8.642-2.6-5.636-.952.693-6.376,7.484,3.812-6.433-6.233,6.68-3.289,3.53,3.974-.378-9.224-12.094,7.221-7.378-7.6,1.9-19.91,6.28-2.522.807-10.557-22.271-19.487-4.058,1.748-1.188-2.887,3.3-4.744,3.114,3.5,4.388,1.55,1.243-3.522-3.636-1.283-1.569-3.281,6.64-3.173,4.406,9.216Zm-53.335,20.314,1.844,35.777-3.744,10.234-9.926-18,9.481-35.529,5.922.144Zm34.289-5.356,18.331,18.875.236,6.317-3.411,2.4-19.344-25.108Zm-.55-19.265-3.586-1.381-2.437-5.1c.058-.027,3.081-1.736,3.081-1.736l3.51,4.032Z" transform="translate(-1078.724 -3989.915)" fill="#48495a"/>
    <path id="Caminho_59" data-name="Caminho 59" d="M1173.767,3991l-29.606,7.723-2.444,13.357-12.328,5.125,10.937,5.616-1.378,14.38,19.32,11.108,24.552-10.872,7.349-21.362Zm-28.734,33.84,6.311-11.942,4.052,2.453-4.935,8.046,8.618,2.069-1.842,5.63Zm17.451,8.5,1.729-27.1,4.784-1.135-1.162,26.178Zm15-7.17-3.979-3.353,6.5-6.128-8.521-4.276,2.048-4.146,11.156,7.981Z" transform="translate(-1053.692 -3991)" fill="#48495a"/>
  </g>
</svg>
