<svg xmlns="http://www.w3.org/2000/svg" xmlns:xlink="http://www.w3.org/1999/xlink" width="103.377" height="140.663" viewBox="0 0 103.377 140.663">
  <defs>
    <clipPath id="clip-path">
      <rect width="103.377" height="140.663" fill="none"/>
    </clipPath>
  </defs>
  <g id="icn_interface-design" clip-path="url(#clip-path)">
    <path id="Caminho_60" data-name="Caminho 60" d="M1167.425,4157.155l-23.123,8.19,3.66,7.9,14.837-6.07,14.453,44.8-54.724,16.089-17.245-36.033,23.99-11.754-3.854-8.382-36.033,15.222-2.408,10.31L1104.8,4245.7l13.488,2.216,72.067-29.579Zm-58.331,55.949-2.241,2.239-3.638-1.119v-2.856l2.855-2.016,3.025,1.96Z" transform="translate(-1086.978 -4107.249)" fill="#48495a"/>
    <path id="Caminho_61" data-name="Caminho 61" d="M1102.4,4156.466l19.173,4.721-3.083-16.571,18.4-19.173,10.5,4.625-5.3,8.478-5.3-1.252-.964,6.551-7.418-1.349.289,5.492-4.239,11.851,20.329-10.406,21.292,13.008h-10.5l-4.335-4.24-.482,4.24H1144.5l-3.372-5.781-2.216,5.781h-10.309l19.75,53.277-19.076-5.684,9.1-7.227-14.6-37.478-20.136-.385-3.276,11.271h-4.335l-1.927,15.9-6.648-19.847Z" transform="translate(-1086.697 -4125.442)" fill="#48495a"/>
    <path id="Caminho_62" data-name="Caminho 62" d="M1104.637,4153.482h5.973l2.89,5.78-3.661,4.047-3.276-.386-3.179-3.661Z" transform="translate(-1077.565 -4109.357)" fill="#48495a"/>
    <path id="Caminho_63" data-name="Caminho 63" d="M1117.649,4150.972l6.937.482v5.3l-3.469,2.023-3.468-1.638Z" transform="translate(-1069.381 -4110.797)" fill="#48495a"/>
    <path id="Caminho_64" data-name="Caminho 64" d="M1130.322,4183.714l1.734-10.213,8.671,7.13-7.8-1.542Z" transform="translate(-1062.111 -4097.871)" fill="#48495a"/>
    <path id="Caminho_65" data-name="Caminho 65" d="M1139.626,4191.808l-5.4-6.744-2.987,5.588-5.588-6.07-2.7,4.335-5.588-4.335-6.455,10.02,6.744-6.358,6.744,4.046,1.445-4.046,5.781,7.9,2.794-7.9Z" transform="translate(-1073.245 -4091.514)" fill="#48495a"/>
    <path id="Caminho_66" data-name="Caminho 66" d="M1105.405,4187.216l1.445-7.225,10.212,5.876-9.153-1.445Z" transform="translate(-1076.406 -4094.148)" fill="#48495a"/>
  </g>
</svg>
