<svg xmlns="http://www.w3.org/2000/svg" xmlns:xlink="http://www.w3.org/1999/xlink" width="113.675" height="141.067" viewBox="0 0 113.675 141.067">
  <defs>
    <clipPath id="clip-path">
      <rect width="113.675" height="141.067" fill="none"/>
    </clipPath>
  </defs>
  <g id="icon_marketing" clip-path="url(#clip-path)">
    <path id="Caminho_67" data-name="Caminho 67" d="M1172.536,4287.195l-8.281-4.828,11.728-6.372-44-2.523,12.377,48.042-26.727-3.989-5.042-20.638L1080.213,4299l4.9,11.786,23.294-7.854,6.543,16.136-6.44,12.17-3.543-10.133-36.013,9.967,4.495,11.86,24.367-13.544,25.556,60.005,49.7-9.087,9.558-20.559-7.585-34.546-27.676-3.395-3.258-22.443Zm-55.4,70.183-7.5-18.284,7.563,3.214,4.206,15.638Zm2.667,7.439,2.818-.2,3.174,14.322Zm17.649,11.99-2.645.483-3.349-12.465,4.9,1.244Zm-1.189-17.774-7.114-.76-5.224-14.264,10.206,3.365Zm19.249,15.107-9.183,1.361-1.725-9.433,9.639,1.131Zm13.466-1.353-9.323.6-1.151-6.29,12.332,1.549Zm6.044-15.927-2.217,6.944-29.448-4.563-1.936-10.585Z" transform="translate(-1068.957 -4273.472)" fill="#48495a"/>
    <path id="Caminho_68" data-name="Caminho 68" d="M1109,4355.3l8.228,5.55-1.76,11.18-6.856,5.851-12.049-5.644,2.094-11.956Z" transform="translate(-1056.594 -4236.818)" fill="#48495a"/>
    <path id="Caminho_69" data-name="Caminho 69" d="M1135.627,4350.9l8.881,3.053-1.75,7.77-6.176,3.507-5.511-1.528-1.548-6.3Z" transform="translate(-1041.827 -4238.792)" fill="#48495a"/>
  </g>
</svg>
