<svg xmlns="http://www.w3.org/2000/svg" xmlns:xlink="http://www.w3.org/1999/xlink" width="420.915" height="263.402" viewBox="0 0 420.915 263.402">
  <defs>
    <clipPath id="clip-path">
      <rect width="420.915" height="263.402" fill="none"/>
    </clipPath>
  </defs>
  <g id="logo_startup-lab" clip-path="url(#clip-path)">
    <g id="Grupo_195" data-name="Grupo 195" transform="translate(117.091 29.817)">
      <path id="Caminho_197" data-name="Caminho 197" d="M979.355,2644.828a16.061,16.061,0,1,0,16.06,16.061A16.079,16.079,0,0,0,979.355,2644.828Zm0,28a11.944,11.944,0,1,1,11.944-11.944A11.957,11.957,0,0,1,979.355,2672.833Z" transform="translate(-883.63 -2597.221)" fill="#fff"/>
      <path id="Caminho_198" data-name="Caminho 198" d="M972.705,2725.816a2.125,2.125,0,0,0,1.674-2.125v-22.126a2.127,2.127,0,0,0-1.674-2.125,2.06,2.06,0,0,0-2.442,2.024v22.327A2.06,2.06,0,0,0,972.705,2725.816Z" transform="translate(-881.011 -2576.707)" fill="#fff"/>
      <path id="Caminho_199" data-name="Caminho 199" d="M1008.444,2696.3a2.057,2.057,0,0,0,2.058,2.058h1.449v1.45a2.058,2.058,0,0,0,4.117,0v-1.45h1.45a2.058,2.058,0,1,0,0-4.116h-1.45v-1.449a2.058,2.058,0,1,0-4.117,0v1.449H1010.5A2.058,2.058,0,0,0,1008.444,2696.3Z" transform="translate(-866.66 -2579.967)" fill="#fff"/>
      <path id="Caminho_200" data-name="Caminho 200" d="M945.068,2704.248a2.127,2.127,0,0,0,2.687-.318l.953-.954.953.954a2.127,2.127,0,0,0,2.687.318,2.06,2.06,0,0,0,.3-3.158l-1.025-1.025.943-.942a2.138,2.138,0,0,0,.158-2.914,2.058,2.058,0,0,0-2.987-.08l-1.025,1.025-.942-.943a2.137,2.137,0,0,0-2.913-.158,2.059,2.059,0,0,0-.081,2.987l1.025,1.025-1.025,1.025A2.061,2.061,0,0,0,945.068,2704.248Z" transform="translate(-890.818 -2578.166)" fill="#fff"/>
      <path id="Caminho_201" data-name="Caminho 201" d="M907.451,2677.729H908.9v1.449a2.059,2.059,0,0,0,4.118,0v-1.449h1.449a2.058,2.058,0,1,0,0-4.117h-1.449v-1.45a2.059,2.059,0,0,0-4.118,0v1.45h-1.449a2.058,2.058,0,0,0,0,4.117Z" transform="translate(-905.393 -2587.72)" fill="#fff"/>
      <path id="Caminho_202" data-name="Caminho 202" d="M936.081,2637.5h1.449v1.449a2.058,2.058,0,1,0,4.117,0V2637.5h1.45a2.059,2.059,0,0,0,0-4.118h-1.45v-1.449a2.058,2.058,0,0,0-4.117,0v1.449h-1.449a2.059,2.059,0,0,0,0,4.118Z" transform="translate(-894.632 -2602.842)" fill="#fff"/>
      <path id="Caminho_203" data-name="Caminho 203" d="M1004.252,2632.777a2.06,2.06,0,0,0,2.911,0l1.024-1.025,1.025,1.025a2.059,2.059,0,0,0,2.911-2.911l-1.025-1.025,1.025-1.025a2.058,2.058,0,0,0-2.911-2.91l-1.025,1.024-1.024-1.024a2.058,2.058,0,1,0-2.911,2.91l1.024,1.025-1.024,1.025A2.057,2.057,0,0,0,1004.252,2632.777Z" transform="translate(-868.463 -2604.935)" fill="#fff"/>
      <path id="Caminho_204" data-name="Caminho 204" d="M972.376,2722.459h-.1a2,2,0,0,0-1.834,1.113,2.076,2.076,0,0,0,1.848,3h.1a1.991,1.991,0,0,0,1.834-1.113A2.075,2.075,0,0,0,972.376,2722.459Z" transform="translate(-881.023 -2568.042)" fill="#fff"/>
      <path id="Caminho_205" data-name="Caminho 205" d="M1021.018,2647.448h.087a2.058,2.058,0,1,0,0-4.116h-.087a2.058,2.058,0,1,0,0,4.116Z" transform="translate(-862.708 -2597.783)" fill="#fff"/>
      <path id="Caminho_206" data-name="Caminho 206" d="M940.087,2656.5H940a2.059,2.059,0,0,0,0,4.118h.085a2.059,2.059,0,0,0,0-4.118Z" transform="translate(-893.159 -2592.833)" fill="#fff"/>
      <path id="Caminho_207" data-name="Caminho 207" d="M924.422,2644.457h.085a2.059,2.059,0,0,0,0-4.118h-.085a2.059,2.059,0,0,0,0,4.118Z" transform="translate(-899.014 -2598.908)" fill="#fff"/>
      <path id="Caminho_208" data-name="Caminho 208" d="M915.5,2739.555a11.875,11.875,0,0,1,10.2,5.8,10.631,10.631,0,0,1,1.161,2.661,11.984,11.984,0,0,1-.589,8.269,1.271,1.271,0,0,0,.314,1.469q1.292,1.16,2.621,2.276a1.272,1.272,0,0,0,1.3.212,11.811,11.811,0,0,1,16.319,11.142,1.268,1.268,0,0,0,.672,1.122q.758.411,1.523.812a1.292,1.292,0,0,0,1.877-1.083,16.1,16.1,0,0,0-.127-3.325c0-.05.015-.1.015-.149a16.722,16.722,0,0,1,33.443-.055,2.107,2.107,0,0,0,1.658,2.076,2.06,2.06,0,0,0,2.46-2.021v-40.142h14.685v6.915a2.125,2.125,0,0,0,1.674,2.124,2.059,2.059,0,0,0,2.442-2.024v-7.016h3.843v40.042a2.128,2.128,0,0,0,1.676,2.126,2.061,2.061,0,0,0,2.441-2.025,16.722,16.722,0,0,1,33.445,0c0,.051.011.1.015.149a16.111,16.111,0,0,0-.1,3.714,1.073,1.073,0,0,0,1.56.845q.968-.5,1.926-1.025a1.094,1.094,0,0,0,.556-1,11.81,11.81,0,0,1,16.217-11.244,1.459,1.459,0,0,0,1.482-.241q1.348-1.137,2.66-2.315a1.04,1.04,0,0,0,.26-1.208,11.978,11.978,0,0,1-.66-8.413,10.6,10.6,0,0,1,1.157-2.657,11.875,11.875,0,0,1,10.212-5.811,11.7,11.7,0,0,1,3.55.55,1.428,1.428,0,0,0,1.6-.521q.394-.553.78-1.109a1.434,1.434,0,0,0-.728-2.166,16.037,16.037,0,0,0-8.287-.578,15.469,15.469,0,0,0-6.194,2.672,15.952,15.952,0,0,0-6.051,17.392,15.752,15.752,0,0,0-17.044,5.99,20.826,20.826,0,0,0-36.356-5.446v-27.723h2.9a3.43,3.43,0,0,0,3.43-3.43v-6.4h2.042a3.426,3.426,0,0,0,3.408-3.031c.176-1.521.466-4.19.808-7.892h11.94a3.44,3.44,0,0,0,3.43-3.641c-.667-11.421-8.149-21.084-13.452-25.3.242-5.5.444-11.5.574-17.968a54.6,54.6,0,0,0-14.511-38.612,56.526,56.526,0,0,0-15.1-11.907h0a2.065,2.065,0,0,0-1.816,0h0a56.48,56.48,0,0,0-15.1,11.907,54.6,54.6,0,0,0-14.511,38.612c.129,6.465.33,12.471.572,17.968-5.3,4.213-12.785,13.875-13.45,25.3a3.438,3.438,0,0,0,3.43,3.641h11.94c.34,3.7.631,6.372.806,7.892a3.427,3.427,0,0,0,3.408,3.031H977.9v6.4a3.431,3.431,0,0,0,3.432,3.43h2.9v27.723a20.826,20.826,0,0,0-36.356,5.446,15.861,15.861,0,0,0-17.043-5.99,15.95,15.95,0,0,0-6.057-17.4,15.465,15.465,0,0,0-6.2-2.67,16.03,16.03,0,0,0-8.519.664,1.283,1.283,0,0,0-.6,1.929q.468.675.947,1.343a1.28,1.28,0,0,0,1.442.469A11.73,11.73,0,0,1,915.5,2739.555Zm113.858-55.326c4.284,4.339,8.843,11.619,9.543,19.514h-10.846C1028.49,2698.564,1028.961,2691.995,1029.361,2684.228Zm-68.921,19.514c.7-7.895,5.26-15.175,9.543-19.514.4,7.767.871,14.336,1.3,19.514Zm26.158-78.5a56.392,56.392,0,0,1,12-9.979,2.047,2.047,0,0,1,2.148,0,56.445,56.445,0,0,1,12,9.979,54.5,54.5,0,0,1,4.714,5.959,29.112,29.112,0,0,1-35.578,0A54.662,54.662,0,0,1,986.6,2625.24Zm-11.18,78.5c-.815-9.675-1.776-24.38-2.146-42.869a50.041,50.041,0,0,1,6.428-26.164,33.226,33.226,0,0,0,39.945,0,50.026,50.026,0,0,1,6.428,26.164c-.564,28.232-2.511,47.649-3.2,53.793h-46.4c-.168-1.5-.413-3.793-.692-6.806Zm6.6,20.759v-5.718h35.3v5.718Z" transform="translate(-903.947 -2610.226)" fill="#edc02c"/>
    </g>
    <path id="Caminho_209" data-name="Caminho 209" d="M1021.883,2739.059a5.583,5.583,0,1,1,11.165,0v35.455h20.665a5.076,5.076,0,0,1,0,10.151h-26.249a5.538,5.538,0,0,1-5.582-5.582Z" transform="translate(-744.518 -2534.084)" fill="#fff"/>
    <path id="Caminho_210" data-name="Caminho 210" d="M1052.623,2777.586l17.691-39.951a6.9,6.9,0,0,1,6.526-4.424h.652a6.809,6.809,0,0,1,6.454,4.424l17.691,39.951a5.456,5.456,0,0,1,.579,2.248,5.29,5.29,0,0,1-5.292,5.365c-2.61,0-4.352-1.521-5.366-3.843l-3.408-7.975h-22.332l-3.552,8.338a5.484,5.484,0,0,1-5.148,3.479,5.138,5.138,0,0,1-5.149-5.22A5.92,5.92,0,0,1,1052.623,2777.586Zm31.394-14.065-7.032-16.75-7.034,16.75Z" transform="translate(-733.209 -2534.184)" fill="#fff"/>
    <path id="Caminho_211" data-name="Caminho 211" d="M1094.861,2739.375a5.539,5.539,0,0,1,5.582-5.583h17.981c5.8,0,10.37,1.6,13.27,4.5a11.639,11.639,0,0,1,3.48,8.626v.146c0,5.729-3.045,8.918-6.67,10.949,5.874,2.247,9.5,5.654,9.5,12.471v.145c0,9.282-7.541,13.921-19,13.921h-18.562a5.538,5.538,0,0,1-5.582-5.582Zm21.172,14.937c4.93,0,8.049-1.6,8.049-5.366v-.145c0-3.335-2.611-5.221-7.324-5.221h-11.021v10.732Zm2.972,20.446c4.931,0,7.9-1.74,7.9-5.51v-.145c0-3.408-2.537-5.51-8.266-5.51h-12.9v11.165Z" transform="translate(-717.088 -2533.966)" fill="#fff"/>
    <g id="Grupo_196" data-name="Grupo 196" transform="translate(0 199.392)">
      <path id="Caminho_212" data-name="Caminho 212" d="M822.045,2779.711a4.2,4.2,0,0,1,2.488-7.608,4.157,4.157,0,0,1,2.633.8,22.2,22.2,0,0,0,14.338,5.267c5.561,0,9.073-2.633,9.073-6.437v-.146c0-3.658-2.049-5.633-11.559-7.829-10.9-2.634-17.046-5.852-17.046-15.289v-.147c0-8.778,7.317-14.85,17.484-14.85a28.168,28.168,0,0,1,16.241,4.756,4.058,4.058,0,0,1,1.974,3.583,4.183,4.183,0,0,1-4.242,4.17,4.344,4.344,0,0,1-2.342-.659,21.3,21.3,0,0,0-11.779-3.876c-5.267,0-8.338,2.706-8.338,6.072v.146c0,3.95,2.34,5.706,12.216,8.046,10.827,2.635,16.386,6.512,16.386,15v.147c0,9.584-7.536,15.29-18.289,15.29A31.891,31.891,0,0,1,822.045,2779.711Z" transform="translate(-820.289 -2733.476)" fill="#fff"/>
      <path id="Caminho_213" data-name="Caminho 213" d="M858.309,2774.1v-20.336h-1.463a3.8,3.8,0,0,1,0-7.608h1.463v-6.584a4.426,4.426,0,0,1,8.852,0v6.584h6.949a3.8,3.8,0,1,1,0,7.608h-6.949v18.947c0,3.438,1.755,4.828,4.754,4.828a21.056,21.056,0,0,0,2.2-.218,3.73,3.73,0,0,1,3.73,3.657,3.812,3.812,0,0,1-2.34,3.439,17.641,17.641,0,0,1-6.072,1.024C862.918,2785.436,858.309,2782.582,858.309,2774.1Z" transform="translate(-807.979 -2732.837)" fill="#fff"/>
      <path id="Caminho_214" data-name="Caminho 214" d="M875.532,2770.8v-.147c0-8.339,6.51-12.435,15.948-12.435a32.278,32.278,0,0,1,10.388,1.608v-.951c0-5.487-3.365-8.413-9.583-8.413a22.924,22.924,0,0,0-8.561,1.538,5.035,5.035,0,0,1-1.388.217,3.683,3.683,0,0,1-3.731-3.656,3.864,3.864,0,0,1,2.413-3.513,33.119,33.119,0,0,1,12.438-2.267c5.779,0,10.095,1.535,12.8,4.316,2.854,2.779,4.17,6.876,4.17,11.925v19.02a4.216,4.216,0,0,1-4.316,4.242c-2.56,0-4.316-1.755-4.316-3.729v-1.464a15.7,15.7,0,0,1-12.582,5.634C881.968,2782.724,875.532,2778.554,875.532,2770.8Zm26.483-2.779v-2.634a24.527,24.527,0,0,0-8.779-1.537c-5.706,0-9.071,2.413-9.071,6.438v.146c0,3.731,3.292,5.853,7.536,5.853C897.551,2776.286,902.015,2772.919,902.015,2768.02Z" transform="translate(-799.525 -2729.979)" fill="#fff"/>
      <path id="Caminho_215" data-name="Caminho 215" d="M908.6,2747.317a4.371,4.371,0,0,1,4.388-4.463,4.434,4.434,0,0,1,4.463,4.463v3.95c2.049-4.83,5.852-8.486,9.73-8.486a4.108,4.108,0,0,1,4.389,4.389,4.153,4.153,0,0,1-3.511,4.243c-6.292,1.1-10.608,5.925-10.608,15.07V2777.9a4.418,4.418,0,0,1-4.463,4.387,4.353,4.353,0,0,1-4.388-4.387Z" transform="translate(-787.095 -2729.979)" fill="#fff"/>
      <path id="Caminho_216" data-name="Caminho 216" d="M933.329,2774.1v-20.336h-1.463a3.8,3.8,0,0,1,0-7.608h1.463v-6.584a4.426,4.426,0,0,1,8.852,0v6.584h6.95a3.8,3.8,0,1,1,0,7.608h-6.95v18.947c0,3.438,1.756,4.828,4.755,4.828a21.024,21.024,0,0,0,2.194-.218,3.73,3.73,0,0,1,3.731,3.657,3.812,3.812,0,0,1-2.34,3.439,17.654,17.654,0,0,1-6.073,1.024C937.938,2785.436,933.329,2782.582,933.329,2774.1Z" transform="translate(-779.781 -2732.837)" fill="#fff"/>
      <path id="Caminho_217" data-name="Caminho 217" d="M986.843,2777.876a4.463,4.463,0,0,1-8.924,0V2775.9c-2.489,3.658-6.073,6.8-12.07,6.8-8.706,0-13.755-5.851-13.755-14.851V2747.3a4.426,4.426,0,1,1,8.852,0v17.922c0,6,3,9.364,8.266,9.364,5.121,0,8.706-3.511,8.706-9.51V2747.3a4.433,4.433,0,0,1,4.462-4.463,4.48,4.48,0,0,1,4.462,4.463Z" transform="translate(-770.749 -2729.959)" fill="#fff"/>
      <path id="Caminho_218" data-name="Caminho 218" d="M985.378,2747.4a4.372,4.372,0,0,1,4.389-4.463,4.434,4.434,0,0,1,4.462,4.463v2.413c2.854-4.023,6.877-7.242,13.168-7.242,9.071,0,17.923,7.169,17.923,20.043v.147c0,12.8-8.779,20.045-17.923,20.045a15.778,15.778,0,0,1-13.168-6.8v13.681a4.426,4.426,0,0,1-8.851,0Zm30.945,15.361v-.147c0-7.461-5.048-12.362-11.047-12.362s-11.266,4.974-11.266,12.362v.147c0,7.389,5.267,12.364,11.266,12.364C1011.347,2775.123,1016.323,2770.367,1016.323,2762.759Z" transform="translate(-758.238 -2730.059)" fill="#fff"/>
    </g>
    <path id="Caminho_219" data-name="Caminho 219" d="M1068.48,2689.908a2.4,2.4,0,0,1-2.4-2.4,97.733,97.733,0,0,0-72.1-94.23,2.4,2.4,0,0,1,1.252-4.637,102.544,102.544,0,0,1,75.654,98.867A2.4,2.4,0,0,1,1068.48,2689.908Z" transform="translate(-755.674 -2588.555)" fill="#fff"/>
    <path id="Caminho_220" data-name="Caminho 220" d="M902.944,2689.9a2.4,2.4,0,0,1-2.4-2.4,102.569,102.569,0,0,1,75.529-98.834,2.4,2.4,0,0,1,1.258,4.637,97.754,97.754,0,0,0-71.984,94.2A2.4,2.4,0,0,1,902.944,2689.9Z" transform="translate(-790.125 -2588.546)" fill="#fff"/>
  </g>
</svg>
