<?xml version="1.0" standalone="no"?>
<!DOCTYPE svg PUBLIC "-//W3C//DTD SVG 20010904//EN"
 "http://www.w3.org/TR/2001/REC-SVG-20010904/DTD/svg10.dtd">
<svg version="1.0" xmlns="http://www.w3.org/2000/svg"
 width="255.000000pt" height="318.000000pt" viewBox="0 0 255.000000 318.000000"
 preserveAspectRatio="xMidYMid meet">

<g transform="translate(0.000000,318.000000) scale(0.100000,-0.100000)"
fill="#000000" stroke="none">
<path d="M1710 3134 c-575 -66 -570 -65 -570 -78 1 -6 97 -225 215 -486 l214
-475 -52 -7 c-29 -3 -157 -8 -284 -10 l-233 -3 -92 213 c-71 163 -95 211 -107
207 -9 -2 -158 -38 -331 -80 -173 -41 -323 -78 -332 -82 -15 -7 -8 -23 53
-118 38 -60 73 -113 78 -118 6 -6 99 39 236 112 124 67 231 121 236 119 6 -2
52 -71 103 -153 l92 -149 -40 -128 c-22 -70 -43 -128 -46 -128 -4 0 -29 40
-56 90 -27 49 -52 90 -55 90 -7 0 -731 -339 -738 -345 -4 -5 130 -234 141
-241 5 -3 109 75 231 173 122 99 227 182 233 186 7 4 161 -226 390 -583 208
-324 382 -589 386 -590 12 0 1022 371 1030 378 7 7 129 445 131 472 0 8 -64
174 -143 368 l-143 352 -36 0 c-20 -1 -155 -7 -301 -14 -146 -8 -266 -14 -266
-13 -1 1 -36 104 -77 230 l-75 227 81 53 c45 29 171 111 280 181 108 71 197
131 197 135 0 4 -40 22 -90 40 -49 18 -90 34 -90 36 0 1 47 39 104 84 100 77
127 102 109 100 -4 -1 -177 -21 -383 -45z m-710 -1584 c41 -10 76 -23 77 -27
2 -4 34 -74 72 -155 l70 -148 -42 0 -42 1 -85 137 c-117 188 -132 212 -128
212 2 0 37 -9 78 -20z m363 -50 c48 -7 89 -16 92 -20 3 -4 23 -58 45 -119 l39
-111 -72 0 -73 0 -64 113 c-35 61 -70 123 -79 136 -14 22 -14 23 4 18 11 -3
59 -11 108 -17z m682 -43 l310 -22 -2 -40 c-1 -22 -5 -54 -8 -71 l-5 -31 -128
-6 c-137 -7 -512 -9 -512 -3 0 2 -16 47 -35 100 l-35 96 53 -1 c28 0 192 -10
362 -22z m265 -301 c0 -7 -5 -27 -11 -43 -9 -28 -17 -33 -94 -52 -46 -12 -89
-21 -94 -21 -5 0 -16 19 -24 43 -8 23 -18 50 -22 59 -6 16 4 18 107 21 62 1
119 4 126 5 6 1 12 -4 12 -12z m-331 -81 c13 -36 21 -68 19 -70 -7 -7 -150
-55 -163 -55 -7 0 -24 34 -39 76 -15 41 -29 81 -32 89 -5 11 12 15 83 18 48 1
93 4 99 5 6 1 21 -27 33 -63z m-399 -17 c6 -24 20 -72 30 -107 20 -69 19 -81
-9 -81 -13 0 -31 28 -65 103 -27 56 -50 108 -53 115 -4 8 8 12 41 12 45 0 45
0 56 -42z m-288 -30 c9 -24 26 -68 38 -98 12 -30 19 -53 16 -50 -19 20 -114
176 -110 182 14 22 41 5 56 -34z"/>
<path d="M2153 704 l-56 -84 28 -66 c15 -36 33 -67 39 -69 6 -2 36 -6 67 -8
55 -5 57 -4 116 44 l61 49 4 88 c3 48 4 89 2 91 -2 2 -49 12 -105 21 l-101 17
-55 -83z"/>
<path d="M1245 426 l-100 -72 -3 -136 -3 -136 33 -11 c18 -5 78 -22 133 -37
55 -14 105 -28 111 -31 6 -2 39 30 73 71 l62 75 -3 131 -3 131 -98 44 c-54 25
-99 45 -100 45 -1 -1 -47 -34 -102 -74z"/>
</g>
</svg>
