<svg height="512pt" viewBox="-2 0 512 512.00027" width="512pt" xmlns="http://www.w3.org/2000/svg"><g fill-rule="evenodd"><path d="m333.417969 424.425781-76.453125-27.714843-71.105469 27.714843-11.015625 42.28125 84.808594 22.632813 84.808594-22.632813zm0 0" fill="#c4cccf"/><path d="m508 376.765625-249.253906-19.972656-258.746094 19.972656v20.851563c0 14.746093 12.066406 26.808593 26.816406 26.808593h454.363282c14.753906 0 26.820312-12.0625 26.820312-26.808593zm0 0" fill="#eceff1"/><path d="m26.816406 36.773438c-14.75 0-26.816406 12.058593-26.816406 26.808593v313.183594h508v-313.183594c0-14.75-12.066406-26.605469-26.816406-26.808593-14.519532-.234376-385.363282 0-454.367188 0zm0 0" fill="#546e7a"/><path d="m44.609375 341.433594h418.578125c3.152344 0 5.726562-2.570313 5.726562-5.722656v-254.144532c0-3.152344-2.574218-5.722656-5.726562-5.722656-10.460938 0-407.386719 0-418.578125 0-3.152344 0-5.726563 2.570312-5.726563 5.722656v254.144532c0 3.152343 2.570313 5.722656 5.726563 5.722656zm0 0" fill="#8ebfe8"/><path d="m91.324219 281.542969h327.398437c7.1875 0 13.058594-6.046875 13.058594-13.40625v-3.503907c-50.628906-61.644531-145.28125-50.867187-176.773438 0-30.644531-46.898437-123.808593-65.558593-176.773437 0v3.503907c0 7.359375 5.871094 13.40625 13.089844 13.40625zm0 0" fill="#90a4ae"/><path d="m344.460938 466.707031h-193.894532c-12.472656 0-22.667968 10.191407-22.667968 22.632813v12.4375c0 5.609375 4.617187 10.222656 10.226562 10.222656h243.027344c5.640625 0 10.226562-4.613281 10.226562-10.222656v-12.4375c0-12.441406-10.195312-22.632813-22.640625-22.632813zm0 0" fill="#eceff1"/><path d="m255.007812 264.632812 27.605469-130.558593-27.605469-118.238281c-8.089843-4.671876-21.675781-8.789063-38.242187-11.652344-28.832031-4.960938-66.722656-6.160156-100.378906 0-6.191407 1.140625-12.238281 2.511718-18.050781 4.175781-15.019532 4.265625-20.101563 5.609375-20.101563 18.28125v237.992187c55.535156-25.492187 148.902344-16.148437 176.773437 0zm0 0" fill="#eceff1"/><path d="m468.914062 81.566406v254.144532c0 3.152343-2.574218 5.722656-5.726562 5.722656h-70.933594v35.335937h115.746094v-313.1875c0-14.75-12.066406-26.515625-26.816406-26.808593-3.039063-.058594-21.472656-.089844-49.402344-.089844v26.808594c.117188 1.023437.203125 2.074218.203125 3.152343v9.199219h31.199219c3.15625 0 5.730468 2.570312 5.730468 5.722656zm0 0" fill="#35505c"/><path d="m508 376.765625h-115.746094v47.660156h88.929688c14.75 0 26.816406-12.0625 26.816406-26.808593zm0 0" fill="#c4cccf"/><path d="m329.238281 466.707031c12.476563 0 22.671875 10.191407 22.671875 22.632813v12.4375c0 5.609375-4.617187 10.222656-10.226562 10.222656h39.46875c5.640625 0 10.226562-4.613281 10.226562-10.222656v-12.4375c0-12.441406-10.195312-22.632813-22.640625-22.632813zm0 0" fill="#c4cccf"/><path d="m293.949219 424.425781h-108.089844l-5.988281 23.007813h97.515625c12.0625 0 23.605469-.496094 25.765625 7.738281l1.8125 11.535156h39.496094l-11.042969-42.28125zm0 0" fill="#90a4ae"/><path d="m255.007812 264.632812c27.871094-16.148437 121.238282-25.492187 176.773438 0v-237.992187c0-12.675781-5.082031-14.015625-20.097656-18.28125-5.816406-1.664063-11.863282-3.035156-18.054688-4.175781-33.65625-6.160156-71.546875-4.964844-100.378906 0-16.566406 2.863281-30.148438 6.980468-38.242188 11.652344zm0 0" fill="#eceff1"/><path d="m392.253906 252.835938c14.226563 2.542968 27.726563 6.394531 39.527344 11.796874v-237.992187c0-12.675781-5.082031-14.015625-20.097656-18.28125-5.816406-1.664063-11.863282-3.035156-18.054688-4.175781-.46875-.085938-.9375-.175782-1.375-.234375zm0 0" fill="#c4cccf"/><path d="m431.78125 264.632812c-11.800781-5.402343-25.300781-9.257812-39.527344-11.796874v28.707031h26.46875c7.1875 0 13.058594-6.046875 13.058594-13.40625zm0 0" fill="#546e7a"/><path d="m431.78125 268.136719c0 7.359375-5.871094 13.40625-13.058594 13.40625h-26.46875v59.890625h70.929688c3.15625 0 5.726562-2.570313 5.726562-5.722656v-254.144532c0-3.152344-2.570312-5.722656-5.726562-5.722656h-31.402344zm0 0" fill="#519ad6"/></g><path d="m257.226562 404.515625h-.261718c-4.308594 0-7.804688-3.496094-7.804688-7.804687 0-4.308594 3.496094-7.800782 7.804688-7.800782h.261718c4.3125 0 7.804688 3.492188 7.804688 7.800782 0 4.308593-3.492188 7.804687-7.804688 7.804687zm0 0" fill="#35505c"/><path d="m110.785156 163.457031c-2.953125 0-5.78125-1.683593-7.097656-4.542969-1.796875-3.914062-.085938-8.546874 3.832031-10.347656 35.957031-16.53125 96.714844-11.621094 117.316407.339844 3.726562 2.164062 4.992187 6.941406 2.828124 10.667969-2.164062 3.722656-6.941406 4.988281-10.667968 2.828125-15.0625-8.75-70.152344-14.742188-102.957032.339844-1.054687.484374-2.164062.714843-3.253906.714843zm0 0" fill="#35505c"/><path d="m110.785156 210.0625c-2.953125 0-5.78125-1.683594-7.097656-4.542969-1.796875-3.914062-.085938-8.546875 3.832031-10.347656 35.957031-16.53125 96.714844-11.621094 117.316407.339844 3.726562 2.164062 4.992187 6.941406 2.828124 10.667969-2.164062 3.722656-6.941406 4.988281-10.667968 2.828124-15.0625-8.746093-70.152344-14.742187-102.957032.339844-1.054687.484375-2.164062.714844-3.253906.714844zm0 0" fill="#35505c"/><path d="m110.785156 116.878906c-2.953125 0-5.777344-1.679687-7.09375-4.539062-1.804687-3.914063-.09375-8.546875 3.824219-10.347656 35.933594-16.550782 96.695313-11.636719 117.320313.335937 3.726562 2.164063 4.992187 6.941406 2.828124 10.667969-2.164062 3.722656-6.9375 4.988281-10.667968 2.828125-15.082032-8.757813-70.175782-14.757813-102.953125.339843-1.054688.484376-2.167969.714844-3.257813.714844zm0 0" fill="#35505c"/><path d="m110.785156 70.273438c-2.953125 0-5.78125-1.683594-7.097656-4.542969-1.796875-3.914063-.085938-8.546875 3.832031-10.347657 35.957031-16.53125 96.710938-11.621093 117.316407.34375 3.726562 2.164063 4.992187 6.9375 2.828124 10.664063-2.164062 3.726563-6.9375 4.992187-10.667968 2.828125-15.0625-8.746094-70.152344-14.738281-102.957032.34375-1.054687.484375-2.164062.710938-3.253906.710938zm0 0" fill="#35505c"/><path d="m399.230469 163.457031c-1.089844 0-2.199219-.230469-3.253907-.714843-32.792968-15.089844-87.882812-9.09375-102.957031-.34375-3.726562 2.164062-8.503906.898437-10.667969-2.828126-2.164062-3.726562-.894531-8.5 2.832032-10.664062 20.613281-11.964844 81.371094-16.878906 117.316406-.339844 3.914062 1.800782 5.628906 6.433594 3.828125 10.347656-1.316406 2.859376-4.144531 4.542969-7.097656 4.542969zm0 0" fill="#35505c"/><path d="m399.230469 210.0625c-1.089844 0-2.199219-.230469-3.253907-.714844-32.792968-15.089844-87.882812-9.089844-102.957031-.339844-3.726562 2.164063-8.503906.894532-10.667969-2.832031-2.164062-3.722656-.894531-8.5 2.832032-10.664062 20.613281-11.964844 81.371094-16.878907 117.316406-.339844 3.914062 1.800781 5.628906 6.433594 3.828125 10.347656-1.316406 2.859375-4.144531 4.542969-7.097656 4.542969zm0 0" fill="#35505c"/><path d="m399.230469 116.878906c-1.089844 0-2.203125-.230468-3.261719-.71875-32.761719-15.101562-87.859375-9.097656-102.949219-.335937-3.726562 2.164062-8.503906.894531-10.667969-2.828125-2.164062-3.726563-.894531-8.503906 2.832032-10.667969 20.632812-11.976563 81.402344-16.894531 117.320312-.335937 3.914063 1.804687 5.625 6.4375 3.820313 10.351562-1.316407 2.855469-4.140625 4.535156-7.09375 4.535156zm0 0" fill="#35505c"/><path d="m399.230469 70.273438c-1.089844 0-2.199219-.226563-3.253907-.714844-32.792968-15.085938-87.882812-9.089844-102.957031-.339844-3.726562 2.164062-8.503906.894531-10.667969-2.828125-2.164062-3.726563-.894531-8.503906 2.832032-10.667969 20.613281-11.964844 81.371094-16.878906 117.316406-.339844 3.914062 1.800782 5.628906 6.433594 3.828125 10.347657-1.316406 2.859375-4.144531 4.542969-7.097656 4.542969zm0 0" fill="#35505c"/></svg>