<svg height="512pt" viewBox="-14 0 512 512" width="512pt" xmlns="http://www.w3.org/2000/svg"><path d="m453 231.300781v-196.300781c0-19.300781-15.699219-35-35-35h-352c-19.300781 0-35 15.699219-35 35v31h-16c-8.285156 0-15 6.714844-15 15s6.714844 15 15 15h16v40h-16c-8.285156 0-15 6.714844-15 15s6.714844 15 15 15h16v40h-16c-8.285156 0-15 6.714844-15 15s6.714844 15 15 15h16v40h-16c-8.285156 0-15 6.714844-15 15s6.714844 15 15 15h16v40h-16c-8.285156 0-15 6.714844-15 15s6.714844 15 15 15h16v40h-16c-8.285156 0-15 6.714844-15 15s6.714844 15 15 15h16v31c0 19.300781 15.699219 35 35 35h352c19.300781 0 35-15.699219 35-35v-116.300781c17.179688-2.214844 30.5-16.925781 30.5-34.699219v-60c0-17.773438-13.320312-32.484375-30.5-34.699219zm.5 94.699219c0 2.757812-2.242188 5-5 5h-70c-19.300781 0-35-15.699219-35-35s15.699219-35 35-35h70c2.757812 0 5 2.242188 5 5zm-35.5 156h-352c-2.757812 0-5-2.242188-5-5v-31h14c8.285156 0 15-6.714844 15-15s-6.714844-15-15-15h-14v-40h14c8.285156 0 15-6.714844 15-15s-6.714844-15-15-15h-14v-40h14c8.285156 0 15-6.714844 15-15s-6.714844-15-15-15h-14v-40h14c8.285156 0 15-6.714844 15-15s-6.714844-15-15-15h-14v-40h14c8.285156 0 15-6.714844 15-15s-6.714844-15-15-15h-14v-40h14c8.285156 0 15-6.714844 15-15s-6.714844-15-15-15h-14v-31c0-2.757812 2.242188-5 5-5h352c2.757812 0 5 2.242188 5 5v196h-44.5c-35.839844 0-65 29.160156-65 65s29.160156 65 65 65h44.5v116c0 2.757812-2.242188 5-5 5zm0 0"/><path d="m372 176v-80c0-8.285156-6.714844-15-15-15h-200c-8.285156 0-15 6.714844-15 15v80c0 8.285156 6.714844 15 15 15h200c8.285156 0 15-6.714844 15-15zm-200-65h170v50h-170zm0 0"/></svg>