<?xml version="1.0" encoding="utf-8"?>
<!-- Generator: Adobe Illustrator 16.0.0, SVG Export Plug-In . SVG Version: 6.00 Build 0)  -->
<!DOCTYPE svg PUBLIC "-//W3C//DTD SVG 1.0//EN" "http://www.w3.org/TR/2001/REC-SVG-20010904/DTD/svg10.dtd">
<svg version="1.0" id="Camada_1" xmlns="http://www.w3.org/2000/svg" xmlns:xlink="http://www.w3.org/1999/xlink" x="0px" y="0px"
	 width="6183.661px" height="2977.191px" viewBox="0 0 6183.661 2977.191" enable-background="new 0 0 6183.661 2977.191"
	 xml:space="preserve">
<g>
	<path fill="#006EB2" d="M1398.511,1468.203c0-248.551-202.125-450.66-450.664-450.66c-248.555,0-450.453,202.109-450.453,450.66
		c0,168.055,95.203,323.094,243.648,399.977v293.273c0,43.664,35.773,79.238,79.438,79.238h58.992
		c2.344,23.207,31.953,41.523,68.375,41.523c36.625,0,66.445-18.316,68.57-41.316h58.797c43.867,0,79.852-35.578,79.852-79.23
		V1868.18C1303.519,1791.297,1398.511,1636.465,1398.511,1468.203 M1116.519,1828.355c-10.438,5.113-15.969,16.402-14.477,27.477
		v33.434H880.761c-14.695,0-26.633,11.938-26.633,26.406c0,14.703,11.938,26.621,26.633,26.621h221.281v55.816H947.847
		c-14.492,0-26.406,11.918-26.406,26.406c0,14.684,11.914,26.621,26.406,26.621h154.195v55.797h-77.523
		c-14.492,0-26.414,11.918-26.414,26.621c0,14.488,11.922,26.406,26.414,26.406h77.305v1.707c0,14.273-11.914,26.418-26.609,26.418
		H820.269c-14.477,0-26.414-12.145-26.414-26.418v-309.234c0-2.141-0.852-4.063-1.273-5.977c0-1.277,0-2.555-0.648-3.828
		c-0.414-1.289-1.477-2.348-2.125-3.828c-1.055-1.504-2.125-3.43-3.609-4.91c-0.43-0.422-1.07-0.855-1.5-1.07
		c-1.703-1.707-3.625-3.395-6.18-4.672c-138.43-65.398-228.094-206.594-228.094-359.73c0-219.367,178.266-397.836,397.422-397.836
		c219.352,0,397.625,178.469,397.625,397.621C1345.472,1621.77,1255.589,1763.184,1116.519,1828.355"/>
	<path fill="#006EB2" d="M953.597,1117.219c-14.703,0-26.406,11.926-26.406,26.406c0,14.695,11.703,26.414,26.406,26.414
		c161.656,0,293.055,131.617,293.055,293.488c0,14.473,12.133,26.406,26.625,26.406c14.477,0,26.617-11.934,26.617-26.406
		C1299.894,1272.699,1144.644,1117.219,953.597,1117.219"/>
	<path fill="#006EB2" d="M610.839,1052.578l-142.07-142.082c-28.578-28.566-72.93,15.754-44.344,44.328l142.086,142.082
		C595.073,1125.473,639.417,1081.141,610.839,1052.578"/>
	<path fill="#006EB2" d="M409.05,1334.809H209.261c-40.336,0-40.414,62.695,0,62.695H409.05
		C449.401,1397.504,449.456,1334.809,409.05,1334.809"/>
	<path fill="#006EB2" d="M1338.831,1081.23l142.07-142.07c28.578-28.566-15.742-72.918-44.328-44.344
		c-47.359,47.367-94.719,94.719-142.086,142.082C1265.933,1065.477,1310.253,1109.805,1338.831,1081.23"/>
	<path fill="#006EB2" d="M1497.386,1401.027h200.922c40.344,0,40.414-62.695,0-62.695h-200.922
		C1457.034,1338.332,1456.972,1401.027,1497.386,1401.027"/>
	<path fill="#006EB2" d="M965.581,926.18V725.262c0-40.348-62.695-40.414-62.695,0V926.18
		C902.886,966.527,965.581,966.586,965.581,926.18"/>
	<polygon points="2130.94,1794.516 2359.675,1794.516 2359.675,1867.523 2214.37,1867.523 2214.37,1993.359 2340.206,1993.359 
		2340.206,2066.352 2214.37,2066.352 2214.37,2197.754 2359.675,2197.754 2359.675,2270.75 2130.94,2270.75 	"/>
	<path d="M2783.761,1794.516v476.234h-80.656v-197.449c0-46.805,3.242-93.852,9.734-141.129l-77.867,215.52h-69.531l-78.555-215.52
		c6.945,43.105,10.43,90.145,10.43,141.129v197.449h-79.945v-476.234h88.984l93.852,264.18l93.859-264.18H2783.761z"/>
	<path d="M2858.831,1794.516h140.438c37.539,0,66.625,9.289,87.25,27.813c20.609,18.543,30.945,44.742,30.945,78.559v116.109
		c0,33.828-10.336,60.027-30.945,78.57c-20.625,18.531-49.711,27.801-87.25,27.801h-56.305v147.383h-84.133V1794.516z
		 M3034.026,1909.23c0-27.809-14.594-41.707-43.797-41.707h-47.265v183.535h47.265c29.204,0,43.797-14.137,43.797-42.406V1909.23z"
		/>
	<path d="M3260.675,2091.383v179.367h-83.438v-476.234h140.445c37.523,0,66.625,9.172,87.242,27.469
		c20.617,18.316,30.945,44.387,30.945,78.215v81.34c0,53.773-19.477,87.602-58.398,101.512l75.086,187.699h-91.773l-66.047-179.367
		H3260.675z M3260.675,1866.129v157.828h48.664c15.281,0,26.297-3.367,33.008-10.082c6.719-6.727,10.086-17.73,10.086-33.035
		v-74.375c0-26.891-14.375-40.336-43.094-40.336H3260.675z"/>
	<polygon points="3505.386,1794.516 3734.12,1794.516 3734.12,1867.523 3588.815,1867.523 3588.815,1993.359 3714.644,1993.359 
		3714.644,2066.352 3588.815,2066.352 3588.815,2197.754 3734.12,2197.754 3734.12,2270.75 3505.386,2270.75 	"/>
	<polygon points="3791.808,1794.516 4020.542,1794.516 4020.542,1867.523 3875.237,1867.523 3875.237,1993.359 4001.065,1993.359 
		4001.065,2066.352 3875.237,2066.352 3875.237,2197.754 4020.542,2197.754 4020.542,2270.75 3791.808,2270.75 	"/>
	<path d="M4281.933,1794.516h82.75v476.234h-84.125c-68.148-173.809-107.078-274.969-116.805-303.465
		c-9.75-28.508-15.055-44.152-15.992-46.934c0,0.953,1.148,9.516,3.477,25.73c6.016,42.18,9.031,94.316,9.031,156.434v168.234
		h-82.023v-476.234h85.508c58.852,148.777,92.922,236.379,102.195,262.805c9.266,26.418,16.102,46.707,20.516,60.844
		c4.391,14.133,7.063,22.34,7.992,24.668c0-1.855-1.18-10.652-3.477-26.426c-6.031-46.344-9.047-98.941-9.047-157.816V1794.516z"/>
	<path d="M4439.761,1794.527h151.547c37.07,0,65.695,9.16,85.867,27.457c20.164,18.305,30.25,44.613,30.25,78.902v259.32
		c0,73.699-37.313,110.551-111.938,110.551h-155.727V1794.527z M4623.979,1903.676c0-26.426-14.367-39.641-43.102-39.641h-57.688
		v334.426h57.688c28.734,0,43.102-14.832,43.102-44.508V1903.676z"/>
	<polygon points="4775.534,1794.516 5004.276,1794.516 5004.276,1867.523 4858.979,1867.523 4858.979,1993.359 4984.792,1993.359 
		4984.792,2066.352 4858.979,2066.352 4858.979,2197.754 5004.276,2197.754 5004.276,2270.75 4775.534,2270.75 	"/>
	<path d="M5061.972,1794.527h151.555c37.063,0,65.688,9.16,85.875,27.457c20.148,18.305,30.234,44.613,30.234,78.902v259.32
		c0,73.699-37.313,110.551-111.93,110.551h-155.734V1794.527z M5246.206,1903.676c0-26.426-14.383-39.641-43.109-39.641h-57.695
		v334.426h57.695c28.727,0,43.109-14.832,43.109-44.508V1903.676z"/>
	<path d="M5390.808,1906.453c0-36.152,11.352-64.992,34.063-86.551c22.695-21.559,56.309-32.336,100.797-32.336
		c44.504,0,78.215,10.777,101.156,32.336c22.949,21.559,34.414,50.398,34.414,86.551v252.367c0,36.156-11.465,65.004-34.414,86.563
		c-22.941,21.559-56.652,32.336-101.156,32.336c-44.488,0-78.102-10.777-100.797-32.336c-22.711-21.559-34.063-50.406-34.063-86.563
		V1906.453z M5577.812,1910.625c0-31.531-17.27-47.285-51.793-47.285c-34.535,0-51.793,15.754-51.793,47.285v244.016
		c0,31.531,17.258,47.273,51.793,47.273c34.523,0,51.793-15.742,51.793-47.273V1910.625z"/>
	<path d="M5812.804,2091.383v179.367h-83.43v-476.234h140.434c37.539,0,66.625,9.172,87.246,27.469
		c20.625,18.316,30.941,44.387,30.941,78.215v81.34c0,53.773-19.465,87.602-58.387,101.512l75.074,187.699h-91.773l-66.043-179.367
		H5812.804z M5812.804,1866.129v157.828h48.66c15.293,0,26.309-3.367,33.023-10.082c6.711-6.727,10.07-17.73,10.07-33.035v-74.375
		c0-26.891-14.363-40.336-43.094-40.336H5812.804z"/>
	<path fill="#006EB2" d="M2120.042,1001.719c0-57.926,19.313-102.73,57.938-134.414c38.617-31.648,94.031-47.512,166.281-47.512
		c72.219,0,128.414,7.359,168.594,22.027v133.246c-44.813-17.746-97.742-26.641-158.75-26.641c-61.016,0-91.523,23.176-91.523,69.52
		v31.293c0,23.168,4.227,41.133,12.727,53.875c8.492,12.738,25.102,25.699,49.82,38.82l133.258,75.324
		c62.578,33.992,93.867,85.734,93.867,155.254v68.359c0,58.723-21.258,104.105-63.734,136.156
		c-42.492,32.059-103.125,48.078-181.914,48.078c-78.797,0-137.891-8.488-177.281-25.48v-134.426
		c49.422,20.867,105.438,31.293,168.008,31.293c76.477,0,114.711-23.934,114.711-71.836v-30.125
		c0-20.074-4.055-35.723-12.164-46.934c-8.117-11.191-22.984-22.586-44.617-34.18l-127.453-69.52
		c-71.844-39.402-107.766-96.18-107.766-170.336V1001.719z"/>
	<polygon fill="#006EB2" points="2642.636,825.602 3023.854,825.602 3023.854,947.258 2781.675,947.258 2781.675,1156.984 
		2991.401,1156.984 2991.401,1278.668 2781.675,1278.668 2781.675,1497.652 3023.854,1497.652 3023.854,1619.316 2642.636,1619.316 
			"/>
	<path fill="#006EB2" d="M3259.058,1320.379v298.938h-139.047V825.602h234.063c62.563,0,111.039,15.258,145.414,45.766
		c34.367,30.527,51.57,73.977,51.57,130.352v135.574c0,89.621-32.453,146.008-97.336,169.176l125.133,312.848h-152.945
		l-110.086-298.938H3259.058z M3259.058,944.949v263.02h81.102c25.492,0,43.844-5.574,55.039-16.785
		c11.195-11.191,16.797-29.547,16.797-55.051v-123.98c0-44.801-23.938-67.203-71.836-67.203H3259.058z"/>
</g>
</svg>
