<svg id="Layer_1" height="512" viewBox="0 0 128 128" width="512" xmlns="http://www.w3.org/2000/svg" data-name="Layer 1"><path d="m117 74.393a1.75 1.75 0 0 0 1.75-1.75v-61.643a1.75 1.75 0 0 0 -1.75-1.75h-106a1.75 1.75 0 0 0 -1.75 1.75v61.643a1.75 1.75 0 0 0 1.75 1.75h15.819a16.732 16.732 0 0 0 2.166 3.519c-.672.337-1.325.7-1.968 1.079l-.034.019a33.856 33.856 0 0 0 -16.713 29.256v8.734a1.75 1.75 0 0 0 3.5 0v-8.734a30.362 30.362 0 0 1 13.853-25.528l10.2 8.807a1.75 1.75 0 0 0 2.417-.123l2.353-2.495 1.893 3.786-4.634 23.955a1.749 1.749 0 0 0 1.386 2.05 1.7 1.7 0 0 0 .334.032 1.75 1.75 0 0 0 1.716-1.418l3.029-15.656 3.028 15.656a1.75 1.75 0 0 0 3.436-.664l-4.634-23.955 1.892-3.785 2.352 2.494a1.75 1.75 0 0 0 2.417.123l10.4-8.976 16.973 10.761a4.935 4.935 0 0 0 6.916-1.7l10.725-18.578 6.206 3.583-12.056 20.883a11.577 11.577 0 0 1 -15.862 4.21l-4.895-2.643a1.75 1.75 0 0 0 -2.581 1.556l.145 16.375a1.75 1.75 0 0 0 1.75 1.734h.016a1.75 1.75 0 0 0 1.734-1.766l-.118-13.412 2.242 1.211a15.077 15.077 0 0 0 20.597-5.515l12.932-22.4a1.736 1.736 0 0 0 .169-.428c.124-.116.246-.233.362-.357v14.873a6.535 6.535 0 1 0 3.5 0v-16.563zm-104.25-3.5v-58.143h102.5v58.143h-2.766a7.475 7.475 0 0 0 -14.867-1.023l-.59 1.022h-30.048a16.711 16.711 0 0 0 .357-3.428v-1.45a7.822 7.822 0 0 0 -.011-15.254c-.238-12.921-5.849-26.392-21.008-26.392h-20.697a1.75 1.75 0 0 0 -1.742 1.588c-.034.359-.717 8.52 3.768 14.149a18.472 18.472 0 0 0 -2.346 9.037v1.621a7.822 7.822 0 0 0 0 15.251v1.451a16.711 16.711 0 0 0 .357 3.428zm29.26 9.785a13.228 13.228 0 0 1 -13.21-13.213v-18.323a14.986 14.986 0 0 1 1.488-6.517 15.256 15.256 0 0 0 9.06 2.614h9.752a16.559 16.559 0 0 1 11.72 4.818l3.014 2.982v14.426a13.229 13.229 0 0 1 -13.212 13.213zm-11.2-42.227c-2.948-3.224-3.441-8.093-3.484-10.583h18.99c13.559 0 16.688 12.649 17.353 20.081l-.385-.381a20.037 20.037 0 0 0 -14.184-5.83h-9.755c-3.668 0-6.539-1.105-8.533-3.287zm-5.51 23.89a4.318 4.318 0 0 1 0-7.906zm42.039-7.906a4.318 4.318 0 0 1 0 7.905zm-28.497 33.365-7.991-6.9c.257-.125.521-.24.783-.359a16.62 16.62 0 0 0 10.376 3.637h.25zm7.475.746-1.167-2.331 1.165-1.235 1.166 1.237zm7.473-.746-3.418-3.624h.251a16.63 16.63 0 0 0 10.817-3.995l.677.429zm32.276 2.076a1.434 1.434 0 0 1 -2.012.5l-20.166-12.785a16.709 16.709 0 0 0 1.926-3.2h29.192zm15.147-20.065a3.975 3.975 0 1 1 6.709 3.873zm14.037 27.435a3.035 3.035 0 1 1 -3.035-3.035 3.038 3.038 0 0 1 3.035 3.035z"/><path d="m64 27.539h37.227a1.75 1.75 0 0 0 0-3.5h-37.227a1.75 1.75 0 0 0 0 3.5z"/><path d="m101.227 32.329h-31.94a1.75 1.75 0 0 0 0 3.5h31.939a1.75 1.75 0 0 0 0-3.5z"/><path d="m101.227 40.619h-28.894a1.75 1.75 0 0 0 0 3.5h28.894a1.75 1.75 0 0 0 0-3.5z"/><path d="m101.227 48.908h-23.894a1.75 1.75 0 0 0 0 3.5h23.894a1.75 1.75 0 0 0 0-3.5z"/><path d="m101.227 57.2h-21.727a1.75 1.75 0 0 0 0 3.5h21.727a1.75 1.75 0 0 0 0-3.5z"/><path d="m23.345 100.961a1.75 1.75 0 0 0 -1.75 1.75v14.289a1.75 1.75 0 0 0 3.5 0v-14.289a1.75 1.75 0 0 0 -1.75-1.75z"/><path d="m52.812 65.915a1.75 1.75 0 0 0 -3.5 0 3 3 0 0 1 -5.993 0 1.75 1.75 0 0 0 -3.5 0 6.5 6.5 0 0 0 12.993 0z"/><path d="m41.637 55.439a2.884 2.884 0 1 0 -2.884 2.884 2.887 2.887 0 0 0 2.884-2.884z"/><path d="m53.88 58.323a2.884 2.884 0 1 0 -2.88-2.884 2.887 2.887 0 0 0 2.88 2.884z"/></svg>