<svg id="Camada_1" data-name="Camada 1" xmlns="http://www.w3.org/2000/svg" viewBox="0 0 1455.93 316.17"><defs><style>.cls-1{fill:#01a5da;}.cls-2{fill:#fba312;}.cls-3{fill:#7c8287;}.cls-4{fill:#7b8186;}.cls-5{fill:#7a8085;}</style></defs><title>ingresse</title><path class="cls-1" d="M0,196c1.46-1.59,2.86-3.24,4.38-4.76Q98,97.59,191.62,3.84c3.78-3.79,7.07-4.57,11.9-2.61,8.32,3.37,16.85,6.22,25.27,9.34,6.16,2.29,6.86,4.4,3.47,10C218.35,43.73,229.51,72.71,255,79.4c11.06,2.89,21.43.85,31.08-5.17,5.37-3.35,7.61-2.6,9.71,3.26,3,8.45,5.76,17,9,25.36,1.82,4.62.62,7.59-2.76,11Q239.37,176.22,176.9,238.88q-31.64,31.64-63.21,63.33c-3.12,3.16-5.94,4-10.14,2.34-8.2-3.2-16.6-5.9-24.91-8.83-6.89-2.44-7.52-4.37-3.87-10.52,7.74-13.06,8.78-26.54,1.08-39.82s-19.95-19.6-35.38-19.3a37.79,37.79,0,0,0-18.89,5.72c-6.43,3.85-8,3.16-10.84-4C7.1,218.55,4.49,208.93,0,200Z"/><path class="cls-2" d="M0,105C4.24,97.69,6,89.36,9.17,81.6c.63-1.53,1.18-3.11,1.76-4.66,2.36-6.23,4.32-6.92,10-3.49,11.44,6.93,23.55,8.12,35.9,3.26C79.07,68,87.67,41.75,75.4,21c-4.35-7.36-3.78-8.91,4.33-11.74S96.1,3.72,104.2.71c3.57-1.33,6.22-.85,8.94,1.93q15.37,15.7,31.08,31.09c2.09,2.05,2.38,3.25.12,5.5Q91.78,91.57,39.45,144.14c-2.47,2.48-3.61,1.49-5.49-.4C22.69,132.46,11.33,121.26,0,110Z"/><path class="cls-3" d="M714.84,232.71c-6.68,8.45-13.74,14.7-22.73,18.21-30.26,11.8-64.68,4.69-79.22-32.62-12.4-31.81-12.27-64.38,2.66-95.55,20.08-42,77.38-38.78,97.66-8.18l1.43,2.05a90.67,90.67,0,0,0,1.29-17.94c-.07-3.13.74-4.34,4.14-4.38,12.64-.15,12.64-.28,12.64,12.43q0,70.21,0,140.45c0,10.18-.82,20.31-4.43,30-8.76,23.45-26.08,36.06-50.57,38.57-22.17,2.27-41.85-4-58.06-19.71-6.49-6.31-6.12-6.14-.26-13.14,3.43-4.11,5-3.5,8.39.15,13.93,15.1,31.24,20.92,51.53,17.18,19.16-3.53,32.83-19,34.77-38.6C715,252.36,714.94,243.16,714.84,232.71Zm.07-57.57c0-11,0-22,0-33a16.33,16.33,0,0,0-.55-4.9c-5.78-17.39-23.09-29.67-42.45-30.23-20.62-.59-35.43,8.85-42.73,27.9-7.78,20.3-7.91,41.34-4.55,62.47,1.83,11.52,6.15,22.15,14.22,30.83,15.46,16.63,47.12,16.64,64.3.05,7.78-7.51,13.1-16,12-27.68C714.24,192.19,714.91,183.63,714.91,175.14Z"/><path class="cls-2" d="M226.26,263.27c.34,8,2.21,15.14,6.32,21.65,3.3,5.23,2.48,7.58-3.35,9.75-9.34,3.48-18.75,6.79-28.07,10.32a6.39,6.39,0,0,1-7.62-1.7q-15.82-16-31.81-31.77c-2-2-2-3.16,0-5.16Q214.27,214,266.63,161.45c2.27-2.29,3.46-1.89,5.48.16q15.4,15.67,31.08,31.08c2.8,2.74,3.23,5.35,1.89,8.93-3.2,8.56-6.09,17.23-9.14,25.84-2.27,6.41-4.48,7.13-10.31,3.62-12.85-7.72-26.16-8.72-39.38-1.47S226.92,248.78,226.26,263.27Z"/><path class="cls-4" d="M940.32,175c-17.32,0-34.64.12-52-.08-3.81,0-4.71,1.06-4.65,4.78.29,19,6.12,35.81,20.52,48.65,21.62,19.27,55.37,16.88,74.84-5.1,2.82-3.18,4.35-3.07,7.44-.58,7.32,5.92,7.46,5.74.89,12.66-33.56,35.31-94.91,24.44-113.49-20.75-12.64-30.73-11.39-61.58,5.23-90.79,18.12-31.84,61-42.07,90.13-21.88,15,10.37,22.44,25.49,25.66,43,1.49,8,1.75,16.19,2,24.35.13,4.37-.81,6-5.64,5.89C974.31,174.8,957.31,175,940.32,175Zm-8.92-15c14.64,0,29.28-.08,43.91.06,3.1,0,4-.87,3.78-4A90.47,90.47,0,0,0,976,139c-8.61-30.82-44.92-42.76-69.93-22.76-12.88,10.29-18.81,24.5-21.27,40.46-.53,3.43,1.26,3.37,3.64,3.36C902.79,160,917.09,160,931.4,160Z"/><path class="cls-4" d="M1399.51,175c-17.33,0-34.65.14-52-.1-4.13-.05-4.91,1.33-4.81,5.11.62,22.94,8.69,42.08,28.81,54.37,20.63,12.6,49.59,7.75,66.09-10.61,2.89-3.21,4.57-3.91,8.15-.93,7,5.8,7.17,5.55.75,12.36-33.35,35.34-95,24.55-113.57-20.45-12.66-30.74-11.41-61.56,5.1-90.8,18-31.91,60.88-42.25,90.07-22.14,15,10.33,22.51,25.43,25.78,42.9,1.57,8.37,1.84,16.85,2,25.35.08,3.87-.91,5.1-5,5C1433.82,174.87,1416.66,175,1399.51,175Zm-8.8-15c14.3,0,28.61-.14,42.91.1,3.9.06,4.84-1.11,4.45-4.81a97.19,97.19,0,0,0-3.1-16.62c-8.76-30.57-44.85-42.34-69.72-22.6-12.65,10-18.47,23.91-21.31,39.4-.76,4.16.82,4.64,4.35,4.6C1362.43,159.94,1376.57,160,1390.71,160Z"/><path class="cls-4" d="M1081,91.74c19.72,0,34.87,3.48,47.36,14.7a40.76,40.76,0,0,1,13.94,29.41c.12,2.46-.44,3.43-2.89,3.15a16.67,16.67,0,0,0-2,0c-3.67,0-7.71.93-10.9-.32-3.7-1.45-2-6.39-3.41-9.64-4.4-10.53-12.53-16.74-22.95-19.93a55.22,55.22,0,0,0-36.73,1.21c-11,4.23-17.42,13.15-17.58,23.73-.17,11.81,6.38,18.67,16.57,23.06,13.07,5.64,27.16,7.76,40.63,12,9.23,2.92,18.26,6.3,26,12.44,20,15.93,19.14,47.32-1.62,62.22-24.88,17.87-67.7,16-90.56-4a40.69,40.69,0,0,1-13.75-25.88c-.49-3.58.12-5.7,4.53-5.23,3.8.4,8-.83,11.4.41,3.75,1.37,2.21,6.39,3.62,9.65,3.06,7,7.63,12.61,14.45,15.9,18.17,8.75,36.73,9.55,54.67-.11,18.51-9.95,18.81-32.9,1.11-44.32-10.73-6.92-23-9.32-35.17-12.2-10.54-2.51-20.81-5.69-30.42-10.92-26.1-14.19-24.47-49.24-2-64.31A64.55,64.55,0,0,1,1081,91.74Z"/><path class="cls-4" d="M1236.36,91.68c16.1,0,31.1,3.43,43.56,14.4a40.86,40.86,0,0,1,14.34,29.21c.17,2.77-.29,4.15-3.31,3.71a9.25,9.25,0,0,0-1.49,0c-3.67,0-7.69.9-10.91-.31-3.8-1.43-2.07-6.36-3.43-9.6a31.52,31.52,0,0,0-14.74-16.35c-16-8.29-32.37-8.45-48.45-.59-9.56,4.68-14.66,12.69-14.06,23.84.58,10.72,6.89,16.87,16,20.9,10.87,4.81,22.5,7.07,33.89,10.16,10.13,2.75,20,6.13,29.12,11.54,25.54,15.12,23.78,53-.81,67.41-26.18,15.29-65.37,12.95-87.24-6.14A40.62,40.62,0,0,1,1175.06,214c-.48-3.49,0-5.76,4.47-5.28,3.79.41,8-.81,11.4.39,3.83,1.35,2.24,6.37,3.65,9.61,3.06,7.06,7.6,12.64,14.42,15.93,18.16,8.78,36.72,9.58,54.67,0,18.54-10,18.88-32.89,1.2-44.32-10.72-6.93-23-9.34-35.15-12.22-10.54-2.51-20.81-5.69-30.43-10.9-26.11-14.15-24.65-49.33-2.06-64.25C1209.19,95,1220.88,91.55,1236.36,91.68Z"/><path class="cls-5" d="M463.89,120.08c9.25-12.32,20.06-21.69,34.61-25.87,13.28-3.81,26.75-3.76,39.75,1.15,16.62,6.28,23.66,20,26.71,36.41a98.7,98.7,0,0,1,1.27,17.92c0,32.82-.06,65.65.1,98.47,0,4-1.06,5-5,5C549,253,549,253.12,549,240.68q0-44.73,0-89.48c0-7.68-.67-15.3-3.05-22.66-4.44-13.74-14.53-20.27-28.37-21.32-23.1-1.74-41.34,9.67-50.74,31.11a31.2,31.2,0,0,0-2.72,13c.12,32.32,0,64.65.14,97,0,3.58-.67,4.89-4.6,4.84-12.71-.13-12.71.05-12.71-12.61,0-47,.05-94-.09-141,0-4.14,1.07-5.35,5.25-5.26,11.64.23,11.66,0,11.79,11.93C463.94,110.84,463.89,115.46,463.89,120.08Z"/><path class="cls-5" d="M795.06,119.32c3.87-5.52,6.53-10.25,10.37-14.13,11.52-11.61,25.72-14.55,41.31-13,3.29.33,5.55,1.65,4.61,5.82-.79,3.51,1.32,8.26-1.18,10.5-2.23,2-6.66-.08-10.11-.06-24.3.16-38.73,14-44.7,36a19.55,19.55,0,0,0-.19,5c0,32.81-.08,65.63.09,98.44,0,4.07-.91,5.38-5.16,5.3-12.17-.25-12.17-.05-12.17-12.15,0-47.14.05-94.27-.09-141.41,0-4.09,1-5.38,5.22-5.29,11.92.22,11.93,0,12,11.93C795.08,110.16,795.06,114.08,795.06,119.32Z"/><path class="cls-5" d="M399.33,174c0,24.81-.08,49.62.09,74.43,0,3.8-1.08,4.74-4.77,4.71-12.69-.1-12.7.05-12.7-12.6,0-46.79.06-93.58-.09-140.38,0-4.29.91-5.7,5.44-5.59,12,.3,12,.07,12,12Z"/><path class="cls-3" d="M390.75,60.23c-7.26,0-11.89-4.64-11.82-11.76S383.79,36.9,391.05,37c7.05,0,12,4.95,11.94,11.83S398,60.27,390.75,60.23Z"/></svg>