<?xml version="1.0" encoding="UTF-8"?>
<svg width="257px" height="62px" viewBox="0 0 257 62" version="1.1" xmlns="http://www.w3.org/2000/svg" xmlns:xlink="http://www.w3.org/1999/xlink">
    <!-- Generator: Sketch 51.3 (57544) - http://www.bohemiancoding.com/sketch -->
    <title>Logo Cuidas</title>
    <desc>Created with Sketch.</desc>
    <defs></defs>
    <g id="Page-1" stroke="none" stroke-width="1" fill="none" fill-rule="evenodd">
        <g id="Logo-and-brand-elements" transform="translate(-136.000000, -419.000000)">
            <g id="Logo-Cuidas" transform="translate(86.000000, 370.000000)">
                <polygon id="Clip-16" points="0 159 355 159 355 0 0 0"></polygon>
                <path d="M149.935474,69.0879792 C150.644609,69.8145608 151,70.7733793 151,71.965276 L151,106.645559 C151,107.786128 150.644609,108.732746 149.935474,109.483729 C149.225515,110.235974 148.288502,110.611256 147.122788,110.611256 C146.007256,110.611256 145.082171,110.235974 144.347944,109.483729 C143.612895,108.732746 143.245576,107.786128 143.245576,106.645559 L143.245576,105.790237 C141.623283,107.449974 139.697429,108.732746 137.4676,109.639395 C135.236537,110.546465 132.855338,111 130.321946,111 C126.823982,111 123.680996,110.222511 120.895047,108.667113 C118.106218,107.111716 115.927395,104.844882 114.356108,101.863247 C112.785232,98.8828738 112,95.2928791 112,91.0936833 L112,71.965276 C112,70.8255484 112.366497,69.8789308 113.102369,69.127106 C113.836596,68.3761227 114.761681,68 115.877212,68 C116.990687,68 117.917006,68.3761227 118.652056,69.127106 C119.385871,69.8789308 119.754424,70.8255484 119.754424,71.965276 L119.754424,91.0936833 C119.754424,95.2928791 120.856793,98.4684656 123.06112,100.619602 C125.265857,102.770738 128.192893,103.846095 131.841817,103.846095 C133.970869,103.846095 135.909475,103.406444 137.657635,102.524617 C139.406206,101.643631 140.775118,100.451314 141.763548,98.9476645 C142.751566,97.4444357 143.245576,95.7594564 143.245576,93.8927265 L143.245576,71.965276 C143.245576,70.7733793 143.612895,69.8145608 144.347944,69.0879792 C145.082171,68.3626597 146.007256,68 147.122788,68 C148.288502,68 149.225515,68.3626597 149.935474,69.0879792" id="Fill-1" fill="#444745"></path>
                <path d="M160.13728,69.0747394 C160.894759,68.3585234 161.849141,68 163,68 C164.202631,68 165.169319,68.3585234 165.901761,69.0747394 C166.633355,69.7922016 167,70.7389859 167,71.9155077 L167,106.083661 C167,107.210331 166.633355,108.145067 165.901761,108.886625 C165.169319,109.629429 164.202631,110 163,110 C161.849141,110 160.894759,109.629429 160.13728,108.886625 C159.378952,108.145067 159,107.210331 159,106.083661 L159,71.9155077 C159,70.7389859 159.378952,69.7922016 160.13728,69.0747394" id="Fill-3" fill="#444745"></path>
                <path d="M202.936487,102.248854 C204.994874,101.000345 206.607435,99.2808009 207.777058,97.0889823 C208.945443,94.8988179 209.529842,92.4534928 209.529842,89.7517662 C209.529842,87.0516938 208.945443,84.6187752 207.777058,82.4521832 C206.607435,80.2872454 204.994874,78.5809353 202.936487,77.3315987 C200.878513,76.0835028 198.578448,75.4586277 196.037943,75.4586277 C193.497025,75.4586277 191.197785,76.0835028 189.139398,77.3315987 C187.082248,78.5809353 185.45484,80.2872454 184.262122,82.4521832 C183.067342,84.6187752 182.469746,87.0516938 182.469746,89.7517662 C182.469746,92.4534928 183.067342,94.8988179 184.262122,97.0889823 C185.45484,99.2808009 187.082248,101.000345 189.139398,102.248854 C191.197785,103.497777 193.497025,104.121412 196.037943,104.121412 C198.578448,104.121412 200.878513,103.497777 202.936487,102.248854 M215.932658,52.0702692 C216.643257,52.7844712 217,53.7261261 217,54.8981287 L217,89.7517662 C217,93.7264018 216.072056,97.3317366 214.217817,100.566944 C212.36234,103.803805 209.846992,106.350863 206.67136,108.210601 C203.494904,110.071579 199.950569,111 196.037943,111 C192.124492,111 188.554999,110.071579 185.328227,108.210601 C182.101455,106.350863 179.573322,103.803805 177.744241,100.566944 C175.914747,97.3317366 175,93.7264018 175,89.7517662 C175,85.7771306 175.850409,82.1730365 177.554115,78.9361753 C179.256172,75.7009684 181.593354,73.1659027 184.566488,71.3309784 C187.539209,69.4968811 190.855476,68.5796257 194.514052,68.5796257 C197.460791,68.5796257 200.204619,69.1912672 202.745949,70.4141365 C205.286043,71.6374194 207.445885,73.3449702 209.224651,75.5351346 L209.224651,54.8981287 C209.224651,53.7261261 209.593354,52.7844712 210.329936,52.0702692 C211.066105,51.3568942 211.993637,51 213.112119,51 C214.280917,51 215.220821,51.3568942 215.932658,52.0702692" id="Fill-5" fill="#444745"></path>
                <path d="M249.935663,102.12928 C251.993637,100.863711 253.606198,99.1336667 254.77582,96.93789 C255.944618,94.7429516 256.529842,92.2772091 256.529842,89.5389857 C256.529842,86.80202 255.944618,84.3224438 254.77582,82.1010958 C253.606198,79.8805861 251.993637,78.137966 249.935663,76.8715586 C247.878513,75.6064089 245.578448,74.9729956 243.037943,74.9729956 C240.495787,74.9729956 238.197785,75.6064089 236.139398,76.8715586 C234.081423,78.137966 232.45484,79.8805861 231.260885,82.1010958 C230.066105,84.3224438 229.469746,86.80202 229.469746,89.5389857 C229.469746,92.2772091 230.066105,94.7429516 231.260885,96.93789 C232.45484,99.1336667 234.081423,100.863711 236.139398,102.12928 C238.197785,103.395268 240.495787,104.027424 243.037943,104.027424 C245.578448,104.027424 247.878513,103.395268 249.935663,102.12928 M253.67136,70.8279325 C256.846167,72.7143386 259.361103,75.2961999 261.217404,78.5756122 C263.072056,81.8567014 264,85.5100413 264,89.5389857 L264,106.81637 C264,107.953244 263.630472,108.896448 262.894303,109.644303 C262.157309,110.393835 261.228952,110.767762 260.112119,110.767762 C258.993637,110.767762 258.066105,110.393835 257.329936,109.644303 C256.592117,108.896448 256.224651,107.953244 256.224651,106.81637 L256.224651,103.949871 C254.445885,106.171639 252.286043,107.901263 249.745949,109.140842 C247.203794,110.38084 244.459966,111 241.512814,111 C237.854239,111 234.538797,110.070211 231.566076,108.211053 C228.593354,106.351476 226.254934,103.783029 224.553291,100.50194 C222.850409,97.2225277 222,93.5675109 222,89.5389857 C222,85.5100413 222.914335,81.8567014 224.743828,78.5756122 C226.573322,75.2961999 229.100218,72.7143386 232.328227,70.8279325 C235.554174,68.9427839 239.124492,68 243.037943,68 C246.950569,68 250.494904,68.9427839 253.67136,70.8279325" id="Fill-7" fill="#444745"></path>
                <path d="M298.794856,69.6273397 C301.464537,70.7118137 303.577894,72.2108778 305.133244,74.1211784 C305.806555,74.9478436 306.144473,75.7745087 306.144473,76.5999162 C306.144473,77.4789814 305.703875,78.2792369 304.822679,79.00194 C304.251205,79.416111 303.525712,79.6215197 302.644516,79.6215197 C301.295367,79.6215197 300.078357,79.1314732 298.989275,78.1497036 C297.692309,76.9621061 296.317911,76.1232842 294.866925,75.631561 C293.414255,75.1415146 291.651441,74.8954434 289.577641,74.8954434 C287.192856,74.8954434 285.235202,75.2961999 283.705522,76.0964553 C282.175843,76.8979683 281.411634,78.021428 281.411634,79.4668343 C281.411634,80.5005849 281.670017,81.3649782 282.189309,82.0625292 C282.706917,82.7600803 283.692056,83.4064888 285.144726,83.9992396 C286.595712,84.5936671 288.695603,85.1746802 291.444398,85.7426981 C297.095165,86.879153 301.100949,88.4545118 303.461327,90.4687744 C305.820442,92.4834562 307,95.0917271 307,98.2940064 C307,100.670459 306.351517,102.826412 305.055392,104.763122 C303.759267,106.700252 301.853795,108.224468 299.338556,109.334932 C296.823737,110.446235 293.803513,111 290.278306,111 C286.751416,111 283.434094,110.457553 280.322552,109.373499 C277.211432,108.288606 274.773202,106.868351 273.01123,105.112317 C272.337077,104.441175 272,103.640082 272,102.709874 C272,101.470714 272.51845,100.463373 273.556191,99.6886894 C274.54091,98.965567 275.448197,98.6042154 276.278054,98.6042154 C277.314954,98.6042154 278.300513,99.0686905 279.233892,99.9984792 C280.218189,101.083372 281.695687,102.026156 283.666807,102.826412 C285.636664,103.627925 287.736976,104.027424 289.9669,104.027424 C292.922737,104.027424 295.217468,103.536958 296.850248,102.555188 C298.48345,101.574676 299.29984,100.257546 299.29984,98.6042154 C299.29984,97.0037046 298.495654,95.6727402 296.889385,94.6134183 C295.281011,93.5557733 292.559149,92.6649704 288.722115,91.9410096 C278.766782,90.0302897 273.789746,85.9493644 273.789746,79.6990719 C273.789746,77.1691916 274.54091,75.0253958 276.044499,73.2685229 C277.548508,71.5133267 279.518366,70.196196 281.955754,69.3171307 C284.392721,68.439323 286.984971,68 289.733345,68 C293.104111,68 296.123072,68.5424466 298.794856,69.6273397" id="Fill-9" fill="#444745"></path>
                <path d="M98.0271314,96.9771928 C93.4872348,101.511956 87.452081,104.009852 81.0322673,104.009852 C74.6128667,104.009852 68.5772998,101.511956 64.0378164,96.9771928 C59.498333,92.4420168 56.9974234,86.4131384 56.9974234,80 C56.9974234,73.5872743 59.498333,67.5579832 64.0378164,63.0228072 C68.5772998,58.4880439 74.6128667,55.9901475 81.0322673,55.9901475 C87.452081,55.9901475 93.4872348,58.4880439 98.0271314,63.0228072 C99.3938931,64.3881477 101.608477,64.3881477 102.975239,63.0228072 C104.341174,61.6587048 104.342,59.4451856 102.975239,58.0802578 C97.1148551,52.2247297 89.3212558,49 81.0322673,49 C72.743692,49 64.950919,52.2247297 59.0897092,58.0802578 C53.2280863,63.9353731 50,71.7200431 50,80 C50,88.2803696 53.2280863,96.0650397 59.0897092,101.920155 C64.950919,107.77527 72.743692,111 81.0322673,111 C89.3212558,111 97.1148551,107.77527 102.975239,101.920155 C104.342,100.554814 104.341174,98.3417079 102.975239,96.9771928 C101.608477,95.6118523 99.3938931,95.6118523 98.0271314,96.9771928" id="Fill-11" fill="#444745"></path>
                <path d="M92,80 C92,86.6274683 86.6275596,92 79.9997961,92 C73.3724404,92 68,86.6274683 68,80 C68,73.3725317 73.3724404,68 79.9997961,68 C86.6275596,68 92,73.3725317 92,80" id="Fill-13" fill="#FF3C66"></path>
            </g>
        </g>
    </g>
</svg>