<svg id="Camada_1" data-name="Camada 1" xmlns="http://www.w3.org/2000/svg" viewBox="0 0 135 72.59"><defs><style>.cls-1{fill:#d52d30;}</style></defs><title>ifood</title><path class="cls-1" d="M135,0c-.14.77-.28,1.54-.43,2.31q-1.11,5.41-2.21,10.83-1.12,5.57-2.26,11.14l-2.22,10.87c-.41,2-.83,4.08-1.24,6.12a2.56,2.56,0,0,1-.1.34H116.42c.42-1.66.83-3.29,1.25-4.93-.52-.14-.58-.12-.86.28A11.9,11.9,0,0,1,112,40.87a14.06,14.06,0,0,1-4.8,1.32,17.29,17.29,0,0,1-2.27.08,5.75,5.75,0,0,1-4.23-2.09,7.75,7.75,0,0,1-1.89-4.55,15.44,15.44,0,0,1,.78-6.11,27.5,27.5,0,0,1,8.92-13.37,16.54,16.54,0,0,1,6.15-3.27,12.58,12.58,0,0,1,4.73-.39c.8.08,1.58.21,2.37.32l.31,0c.08-.39.17-.77.25-1.15Q123.58,5.9,124.79.11a.45.45,0,0,1,0-.11Z"/><path class="cls-1" d="M38.57,0,40,.16a23.37,23.37,0,0,1,4.82,1,1.12,1.12,0,0,1,.18.08l-1.18,6-.28-.1a12.72,12.72,0,0,0-4.29-1c-.77-.05-1.54-.06-2.31-.07a5,5,0,0,0-1.59.28,4.09,4.09,0,0,0-2.22,1.87,8.54,8.54,0,0,0-.89,2.54c-.12.59-.21,1.19-.32,1.78a1.74,1.74,0,0,0,0,.23c.51.05,1,0,1.5,0h6.11l-1.18,5.69c-.84.05-1.67,0-2.5,0h-5q-3.11,15.61-6.22,31.19H14.42c2.07-10.36,4.14-20.7,6.22-31.1-1.19,0-2.33,0-3.52,0l1.11-5.69H21.8c.05-.16.1-.29.13-.43A18.75,18.75,0,0,1,25,6.12,14.87,14.87,0,0,1,34.63.32c.65-.11,1.3-.16,1.95-.24L37,0Z"/><path class="cls-1" d="M58.63,72.59l-.8-.07c-1.1-.08-2.21-.12-3.31-.25a24.49,24.49,0,0,1-9.31-3,28,28,0,0,1-13.69-18c-.09-.36-.16-.72-.24-1.09a3.48,3.48,0,0,1,0-.36h.57a1.18,1.18,0,0,1,.11.19,24.73,24.73,0,0,0,8.65,10.09,25,25,0,0,0,15.67,4.37A37.46,37.46,0,0,0,74.7,58.24a27,27,0,0,0,3.62-2.87c.11-.1.25-.18.43-.31-.83-.67-1.59-1.23-2.34-1.8l-2.27-1.74L71.89,49.8s0,0,0-.06,0,0,0,0h6.33l14,.07q-2.17,11-4.36,22l-.07,0c-.21-.44-.34-.92-.51-1.37s-.33-1-.5-1.42-.33-.94-.5-1.42-.32-.92-.49-1.38-.33-.94-.5-1.41-.33-.94-.52-1.45l-.33.26a37.45,37.45,0,0,1-17.06,8.15,36.83,36.83,0,0,1-5.34.71L60,72.53l-.46.06Z"/><path class="cls-1" d="M0,41.58a1.25,1.25,0,0,0,.16-.33q1.1-5.4,2.17-10.81t2.2-11l1.26-6.31c0-.08,0-.17.08-.27H16c-.46,2.42-1,4.8-1.42,7.19s-.94,4.79-1.42,7.18l-1.41,7.14c-.48,2.39-1,4.78-1.43,7.21H.38c-.13,0-.25,0-.38,0Z"/><path class="cls-1" d="M18.59,0c-.13.61-.27,1.23-.39,1.84C17.78,3.91,17.38,6,17,8a1.45,1.45,0,0,1-.07.26H6.77L8.41,0Z"/><path class="cls-1" d="M46.92,42.32a16,16,0,0,1-6.81-1.47,10,10,0,0,1-3.59-2.79A8,8,0,0,1,34.8,33.8a14.46,14.46,0,0,1,.47-5.2A22.14,22.14,0,0,1,43.61,16a18.77,18.77,0,0,1,9.22-3.62,18,18,0,0,1,6.77.4,11.74,11.74,0,0,1,5,2.6,8.13,8.13,0,0,1,2.72,5.65,16.26,16.26,0,0,1-1,6.66A22.09,22.09,0,0,1,55.7,40.14a17.91,17.91,0,0,1-6.9,2C48.18,42.25,47.55,42.28,46.92,42.32Z"/><path class="cls-1" d="M79.31,42.32a16.1,16.1,0,0,1-6.8-1.47,9.92,9.92,0,0,1-3.59-2.79,8.08,8.08,0,0,1-1.72-4.27,14.42,14.42,0,0,1,.47-5.19A22.2,22.2,0,0,1,76,16a18.7,18.7,0,0,1,9.22-3.62,18.1,18.1,0,0,1,6.76.4,11.92,11.92,0,0,1,4.7,2.32,8.21,8.21,0,0,1,3,5.93,15.63,15.63,0,0,1-.87,6.22,22,22,0,0,1-11,13A18.08,18.08,0,0,1,81.2,42.2Z"/></svg>