<svg id="Camada_1" data-name="Camada 1" xmlns="http://www.w3.org/2000/svg" viewBox="0 0 165.83 42.99"><defs><style>.cls-1{fill:#263b4f;}.cls-2{fill:#fff;}.cls-3{fill:#f0474a;}</style></defs><title>Revelo-Vermelho</title><rect class="cls-1" x="51.83" y="12.29" width="114" height="30.7"/><path class="cls-2" d="M68.8,27.58c1.88,0,3.07-1,3.07-2.5v0c0-1.6-1.15-2.48-3.09-2.48H65v5Zm-6.47-7.41H69a6,6,0,0,1,4.31,1.5,4.51,4.51,0,0,1,1.24,3.22v0A4.48,4.48,0,0,1,71,29.46l4,5.65h-3.1L68.24,29.9H65v5.21H62.33Z"/><polygon class="cls-2" points="79.37 20.17 90.56 20.17 90.56 22.52 82 22.52 82 26.4 89.49 26.4 89.49 28.75 82 28.75 82 32.76 90.56 32.76 90.56 35.11 79.37 35.11 79.37 20.17"/><polygon class="cls-2" points="94.39 20.17 97.3 20.17 101.8 31.66 106.28 20.17 109.12 20.17 102.95 35.12 100.56 35.12 94.39 20.17"/><polygon class="cls-2" points="113.05 20.17 124.24 20.17 124.24 22.52 115.68 22.52 115.68 26.4 123.17 26.4 123.17 28.75 115.68 28.75 115.68 32.76 124.24 32.76 124.24 35.11 113.05 35.11 113.05 20.17"/><path class="cls-2" d="M154.55,27.68v0a5.12,5.12,0,0,0-5.08-5.31,5,5,0,0,0-5,5.27v0A5.12,5.12,0,0,0,149.51,33a5.05,5.05,0,0,0,5-5.28m-12.87,0v0a7.81,7.81,0,0,1,15.62,0v0a7.81,7.81,0,0,1-15.62,0"/><rect class="cls-2" x="128.61" y="20.17" width="2.62" height="12.55"/><rect class="cls-2" x="131.24" y="32.72" width="7.86" height="2.39"/><polygon class="cls-3" points="0 0 0 6.14 0 12.28 51.83 12.28 51.83 6.14 51.83 0 0 0"/></svg>