<svg id="Layer_1" data-name="Layer 1" xmlns="http://www.w3.org/2000/svg" viewBox="0 0 94.69 97.68"><defs><style>.cls-1{fill:#0cad6a;}.cls-2{isolation:isolate;}.cls-3{fill:#595959;}</style></defs><title>logo-hangar</title><path class="cls-1" d="M174.34,22.48h0c0-.34,0-.34-.66-1.32H173l-88.33,8h0l-4,.29c-.34,0-1,.34-1,.69,0,.69,0,1,.34,1.32L98.25,49.73l.35,17.94h0c.34,0,.34.34.66.34h0c0,.29.34.29.66.29h.66L110.9,62l16.27,22.25c.32,0,.66.35,1,.35a1.16,1.16,0,0,0,1-.35l45.19-61.45h0v-.35c-.34.35,0,.35,0,0ZM101.24,63.7l-.31-14,55.79-20.29-30.87,16L107.22,55l-.31.35h0Zm26.91,17.94L109.9,56.34l43.17-22.53,16.27-8.34ZM103.92,63.36l4-5.64,1.64,2.3ZM83.31,31.45l81.38-7.3L99.92,47.72Z" transform="translate(-79.66 -21.16)"/><g class="cls-2"><path class="cls-3" d="M92.76,110.22a.54.54,0,0,1-.53.54H90.56a.54.54,0,0,1-.53-.54l-.09-7.89a3.31,3.31,0,1,0-6.62,0l-.09,7.89a.57.57,0,0,1-.53.54H81a.53.53,0,0,1-.51-.54L80.39,102l.11-13a.54.54,0,0,1,.54-.54h1.6a.5.5,0,0,1,.53.51l.12,8.66a3.84,3.84,0,0,1,3.33-1.54,5.92,5.92,0,0,1,6.23,6.23Z" transform="translate(-79.66 -21.16)"/><path class="cls-3" d="M110.38,110.16a.6.6,0,0,1-.62.6h-1.57a.64.64,0,0,1-.6-.6l0-1.3c0-.09-.08-.12-.15-.07a5.79,5.79,0,0,1-4.24,2,7.33,7.33,0,1,1,7.27-7.69A57.38,57.38,0,0,1,110.38,110.16Zm-2.9-6.17a4.36,4.36,0,1,0-3.74,3.77A4.36,4.36,0,0,0,107.48,104Z" transform="translate(-79.66 -21.16)"/><path class="cls-3" d="M125.81,110.22a.53.53,0,0,1-.5.54h-1.66a.54.54,0,0,1-.54-.54l-.12-7.89a3.31,3.31,0,1,0-6.61,0l-.09,7.89a.54.54,0,0,1-.54.54h-1.66a.54.54,0,0,1-.53-.54l-.09-8.22,0-5.1a.53.53,0,0,1,.53-.53h1.78a.54.54,0,0,1,.54.5v.77a3.88,3.88,0,0,1,3.35-1.54,5.92,5.92,0,0,1,6.23,6.23Z" transform="translate(-79.66 -21.16)"/><path class="cls-3" d="M141.18,109.3a4.75,4.75,0,0,1,2.14,4.1c0,5.25-7.84,6.85-12.35,4.15a.53.53,0,0,1-.11-.74l.86-1.22a.5.5,0,0,1,.62-.15c3,1.4,8.25.6,8.25-2,0-2.41-3.09-2.64-4.42-2.64a7.32,7.32,0,1,1,5-1.9A.27.27,0,0,0,141.18,109.3Zm-5.52-1.48a4.41,4.41,0,1,0-3.8-3.8A4.44,4.44,0,0,0,135.66,107.82Z" transform="translate(-79.66 -21.16)"/><path class="cls-3" d="M161.09,110.16a.61.61,0,0,1-.62.6h-1.58a.64.64,0,0,1-.59-.6l0-1.3a.09.09,0,0,0-.15-.07,5.8,5.8,0,0,1-4.24,2,7.33,7.33,0,1,1,7.27-7.69A57.38,57.38,0,0,1,161.09,110.16ZM158.18,104a4.35,4.35,0,1,0-3.74,3.77A4.35,4.35,0,0,0,158.18,104Z" transform="translate(-79.66 -21.16)"/><path class="cls-3" d="M173.43,98.89l-1.1,1a.54.54,0,0,1-.65,0c-1.93-1.4-4.15-.24-4.15,1.9l0,8.36a.61.61,0,0,1-.62.63h-1.49a.61.61,0,0,1-.62-.63l.15-10a15.47,15.47,0,0,0-.36-3,.47.47,0,0,1,.48-.54l1.89-.32a.57.57,0,0,1,.51.35,1.52,1.52,0,0,1,.09.33,5.15,5.15,0,0,1,5.93,1.16A.52.52,0,0,1,173.43,98.89Z" transform="translate(-79.66 -21.16)"/></g></svg>