<?xml version="1.0" encoding="utf-8"?>
<!-- Generator: Adobe Illustrator 22.0.1, SVG Export Plug-In . SVG Version: 6.00 Build 0)  -->
<svg version="1.1" id="Layer_1" xmlns="http://www.w3.org/2000/svg" xmlns:xlink="http://www.w3.org/1999/xlink" x="0px" y="0px"
	 viewBox="0 0 97 35" style="enable-background:new 0 0 97 35;" xml:space="preserve">
<style type="text/css">
	.st0{clip-path:url(#SVGID_2_);}
	.st1{fill:url(#SVGID_3_);}
	.st2{fill:#007F3E;}
	.st3{fill:#0B8743;}
</style>
<title>logo-mvisia</title>
<g id="Layer_2_1_">
	<g>
		<g>
			<defs>
				<path id="SVGID_1_" d="M9.3,33.9c1,0.3,2.1,0.4,2.1-1.6c-0.1-5-2.4-9.8-6.2-13l-0.4,0.5l-1.1-2.5l2.6,0.3L6,18.2
					c2.4,2,4.3,4.6,5.5,7.5v-2.4c0-3.8-1.2-7.4-3.5-10.5l-0.5,0.4L7,10.7l2.5,0.9L9,12c1,1.3,1.9,2.8,2.5,4.4V8.5h-0.7l1.3-2.3
					l1.3,2.3h-0.7v7.9c0.6-1.6,1.5-3,2.5-4.4l-0.5-0.4l2.5-0.9l-0.5,2.6l-0.5-0.4c-2.3,3-3.5,6.7-3.5,10.5v2.4
					c1.2-2.9,3-5.5,5.5-7.5l-0.4-0.5l2.6-0.3l-1.1,2.4l-0.4-0.5c-3.9,3.3-6.2,8.1-6.2,13.2c0.1,1.7,0.8,1.8,2.1,1.4
					C30,29.8,25.2,10.8,12.1,0C-0.9,10.8-5.7,29.8,9.3,33.9"/>
			</defs>
			<clipPath id="SVGID_2_">
				<use xlink:href="#SVGID_1_"  style="overflow:visible;"/>
			</clipPath>
			<g class="st0">
				
					<linearGradient id="SVGID_3_" gradientUnits="userSpaceOnUse" x1="-2804.2844" y1="336.4667" x2="-2803.9143" y2="336.4667" gradientTransform="matrix(53.2805 53.2805 53.2805 -53.2805 131491.3125 167350.6406)">
					<stop  offset="0" style="stop-color:#A6CE39"/>
					<stop  offset="0.1" style="stop-color:#A6CE39"/>
					<stop  offset="0.9" style="stop-color:#007F3E"/>
					<stop  offset="1" style="stop-color:#007F3E"/>
				</linearGradient>
				<polygon class="st1" points="-22.9,17.2 12.1,-17.8 47.1,17.2 12.1,52.1 				"/>
			</g>
		</g>
	</g>
	<path class="st2" d="M86.1,28.5h-3.4l5.4-16h3.7l5.4,16h-3.4l-3-9.5c-0.2-0.6-0.3-1.2-0.5-2S90,15.7,90,15.4
		c-0.2,1.2-0.5,2.4-0.8,3.6L86.1,28.5z"/>
	<path class="st2" d="M34.6,28.5l-3.9-12.6h-0.1c0.1,2.6,0.2,4.3,0.2,5.1v7.5h-3v-16h4.6l3.8,12.3h0.1l4-12.3H45v16h-3.2v-7.6
		c0-0.4,0-0.8,0-1.2c0-0.5,0-1.7,0.2-3.7h-0.1l-4.1,12.6L34.6,28.5L34.6,28.5z"/>
	<path class="st2" d="M56.9,12.5h3.4l-5.5,16h-3.7l-5.4-16h3.4l3,9.5c0.2,0.6,0.3,1.2,0.5,2s0.3,1.3,0.3,1.6
		c0.2-1.2,0.5-2.4,0.8-3.6L56.9,12.5z"/>
	<rect x="61.2" y="12.5" class="st2" width="3.4" height="16"/>
	<path class="st2" d="M76.9,24c0.1,1.3-0.5,2.6-1.6,3.4c-1.2,0.9-2.8,1.4-4.3,1.3c-1.6,0-3.1-0.3-4.5-1v-3.1c0.9,0.4,1.8,0.7,2.8,1
		c0.7,0.2,1.4,0.3,2.1,0.3c0.6,0,1.2-0.1,1.7-0.4c0.4-0.3,0.6-0.8,0.6-1.3c0-0.3-0.1-0.6-0.3-0.8c-0.2-0.3-0.5-0.5-0.8-0.7
		c-0.7-0.4-1.4-0.8-2.1-1.1c-0.8-0.3-1.5-0.8-2.2-1.3c-0.5-0.4-1-0.9-1.3-1.4c-0.3-0.6-0.5-1.3-0.4-2c-0.1-1.3,0.5-2.5,1.4-3.3
		c1.1-0.9,2.6-1.3,4-1.2c0.8,0,1.6,0.1,2.4,0.3s1.6,0.5,2.4,0.8L75.7,16c-0.7-0.3-1.4-0.5-2.1-0.7c-0.5-0.1-1.1-0.2-1.7-0.2
		c-0.5,0-1.1,0.1-1.5,0.4c-0.3,0.3-0.5,0.7-0.5,1.2c0,0.3,0.1,0.5,0.2,0.8c0.2,0.3,0.4,0.5,0.7,0.6c0.7,0.4,1.5,0.8,2.2,1.1
		c1.1,0.5,2.2,1.2,3,2.1C76.6,22.1,76.9,23.1,76.9,24"/>
	<rect x="78.6" y="12.5" class="st2" width="3.4" height="16"/>
</g>
<rect x="-351" y="-201" class="st3" width="39" height="39"/>
<rect x="-351" y="-155" class="st2" width="39" height="39"/>
</svg>
