<svg id="Camada_1" data-name="Camada 1" xmlns="http://www.w3.org/2000/svg" viewBox="0 0 289.23 120.54"><defs><style>.cls-1{fill:#5e2d7b;}.cls-2{fill:#727176;}</style></defs><title>nubank</title><path class="cls-1" d="M122.65,120.54c-15.82,0-37.9-12-37.9-31.61V78.83c0-10.6,0-27.8,0-54.85a4.64,4.64,0,0,1,4.64-4.64h15A4.64,4.64,0,0,1,109,24V84.42A13.6,13.6,0,0,0,122.57,98h13.6c0-17.94,0-66.81,0-73.32h0v-.15a2.11,2.11,0,0,1,0-.41V24h0a4.66,4.66,0,0,1,4.64-4.64h15A4.64,4.64,0,0,1,160.41,24v61.6c0,7.39-8.08,15.51-15.44,15.51h-5.73v6.62C139.24,115.64,132.89,120.54,122.65,120.54ZM89.37,22.41A1.57,1.57,0,0,0,87.8,24c0,27,0,44.25,0,54.85v10.1c0,17.68,20.29,28.53,34.83,28.53,4.07,0,13.52-.94,13.52-9.71v-6.66h-13.6a16.68,16.68,0,0,1-16.66-16.67V24a1.57,1.57,0,0,0-1.57-1.57ZM139.24,98H145c5.66,0,12.37-6.74,12.37-12.43V24a1.57,1.57,0,0,0-1.57-1.57h-15A1.58,1.58,0,0,0,139.24,24c0,.42,0,45.86,0,74.05Z"/><path class="cls-1" d="M71.05,101.2h-15a4.64,4.64,0,0,1-4.64-4.64V36.11A13.6,13.6,0,0,0,37.85,22.52H24.24V95.85h0v.71h0a4.66,4.66,0,0,1-4.64,4.64h-15A4.64,4.64,0,0,1,0,96.56V35c0-7.39,8.08-15.51,15.44-15.51h5.73V12.82C21.17,4.9,27.53,0,37.76,0c15.83,0,37.9,12,37.9,31.61V41.7c0,10.6,0,27.81,0,54.86A4.64,4.64,0,0,1,71.05,101.2Zm0-3.08a1.56,1.56,0,0,0,1.56-1.56c0-27,0-44.25,0-54.86V31.61c0-17.68-20.29-28.54-34.83-28.54-4.06,0-13.51.95-13.51,9.72v6.66H37.85A16.68,16.68,0,0,1,54.51,36.11V96.56a1.56,1.56,0,0,0,1.56,1.56Zm-51.45,0a1.57,1.57,0,0,0,1.57-1.55c0-.41,0-45.85,0-74H15.44C9.78,22.52,3.08,29.26,3.08,35v61.6a1.56,1.56,0,0,0,1.56,1.56Z"/><path class="cls-2" d="M187.3,98.65a16,16,0,0,1-8.75-2.25V49.62h3.22V66.54a13.12,13.12,0,0,1,7-1.64c7.41,0,12.46,6.32,12.46,16.36S196.49,98.65,187.3,98.65Zm.8-31.74a11.7,11.7,0,0,0-6.33,1.46v27a12.83,12.83,0,0,0,5.42,1C195,96.34,198,90,198,81.26,198,73.66,194.85,66.91,188.1,66.91Z"/><path class="cls-2" d="M218.35,98.65c-8,0-11.49-3.83-11.49-9.36,0-8.76,8-11.44,18.3-12.47V74.57c0-5.9-3.46-7.54-8-7.54a15.6,15.6,0,0,0-7.6,2.13L208.68,67a19.08,19.08,0,0,1,8.88-2.37c5.48,0,10.71,2.37,10.71,10V96.34A19.89,19.89,0,0,1,218.35,98.65Zm6.81-19.89c-9.6,1.28-15.07,3.17-15.07,10.53,0,5.23,3.28,7.35,8.69,7.35a14.23,14.23,0,0,0,6.38-1.34Z"/><path class="cls-2" d="M255.77,98V74.2c0-3.4-1.34-7.29-7.84-7.29a16.08,16.08,0,0,0-7.3,1.33V98h-3.28V67c2.73-1.46,6.14-2.31,11.06-2.31,8.45,0,10.64,5.35,10.64,9.36V98Z"/><path class="cls-2" d="M285.39,98,271.41,81h-.12V98h-3.17V49.62h3.17V80.83h.12L284.3,65.26H288L274.45,80.9,289.23,98Z"/></svg>