<svg id="Layer_1" data-name="Layer 1" xmlns="http://www.w3.org/2000/svg" viewBox="0 0 535.9 97.1"><defs><style>.cls-1{fill:#0091c4;}.cls-2{fill:#64cae6;}.cls-3{fill:#458fc0;}.cls-4{fill:#fff;}</style></defs><title>appsimples_logo</title><path class="cls-1" d="M131,104.8l-2.9-7.7H103.4l-2.9,7.9a26,26,0,0,1-2.9,6.2,4.47,4.47,0,0,1-3.9,1.6,6,6,0,0,1-4.1-1.7,5.12,5.12,0,0,1-1.8-3.9,8.24,8.24,0,0,1,.4-2.6c.3-.9.7-2.1,1.4-3.7L105.1,61c.4-1.1,1-2.5,1.6-4.1a21.26,21.26,0,0,1,2-4,7.8,7.8,0,0,1,2.8-2.6,7.92,7.92,0,0,1,4.2-1,8.3,8.3,0,0,1,4.3,1,9.67,9.67,0,0,1,2.8,2.5,17.4,17.4,0,0,1,1.8,3.3q.75,1.8,1.8,4.8l15.9,39.6c1.2,3,1.9,5.2,1.9,6.6a5.45,5.45,0,0,1-1.8,3.9,5.76,5.76,0,0,1-4.2,1.8,6.18,6.18,0,0,1-2.5-.5,3.91,3.91,0,0,1-1.7-1.4,10,10,0,0,1-1.5-2.8c-.7-1.3-1.1-2.4-1.5-3.3ZM106.6,87.7h18.2l-9.2-25.3Z" transform="translate(-22.3 -32.8)"/><path class="cls-1" d="M160.7,72.7v1.4a20.58,20.58,0,0,1,6.6-5.8,16.66,16.66,0,0,1,7.8-1.9,17.85,17.85,0,0,1,9.6,2.7,18.78,18.78,0,0,1,6.9,8,28,28,0,0,1,2.5,12.4,29.91,29.91,0,0,1-1.5,9.7,22.76,22.76,0,0,1-4,7.4,17.7,17.7,0,0,1-13.6,6.2,15.68,15.68,0,0,1-8.1-2,22.5,22.5,0,0,1-6.3-5.8v17.2q0,7.5-5.4,7.5c-2.1,0-3.5-.6-4.2-1.9a12.39,12.39,0,0,1-1-5.7V72.8a7.53,7.53,0,0,1,1.4-4.9,4.72,4.72,0,0,1,3.9-1.6,5.07,5.07,0,0,1,3.9,1.7,6.47,6.47,0,0,1,1.5,4.7Zm22.2,16.6a20.5,20.5,0,0,0-1.4-7.8,11.51,11.51,0,0,0-3.8-5,8.68,8.68,0,0,0-5.4-1.7,9.94,9.94,0,0,0-7.9,3.7c-2.1,2.5-3.2,6.1-3.2,11,0,4.6,1.1,8.1,3.2,10.6a10,10,0,0,0,7.9,3.8,9,9,0,0,0,5.2-1.7,11.84,11.84,0,0,0,3.9-5A18.56,18.56,0,0,0,182.9,89.3Z" transform="translate(-22.3 -32.8)"/><path class="cls-1" d="M211.6,72.7v1.4a20.58,20.58,0,0,1,6.6-5.8,16.66,16.66,0,0,1,7.8-1.9,17.85,17.85,0,0,1,9.6,2.7,18.78,18.78,0,0,1,6.9,8A28,28,0,0,1,245,89.5a29.91,29.91,0,0,1-1.5,9.7,22.76,22.76,0,0,1-4,7.4,17.7,17.7,0,0,1-13.6,6.2,15.68,15.68,0,0,1-8.1-2,22.5,22.5,0,0,1-6.3-5.8v17.2q0,7.5-5.4,7.5c-2.1,0-3.5-.6-4.2-1.9a12.39,12.39,0,0,1-1-5.7V72.8a7.53,7.53,0,0,1,1.4-4.9,4.72,4.72,0,0,1,3.9-1.6,5.07,5.07,0,0,1,3.9,1.7,6.47,6.47,0,0,1,1.5,4.7Zm22.2,16.6a20.5,20.5,0,0,0-1.4-7.8,11.51,11.51,0,0,0-3.8-5,8.68,8.68,0,0,0-5.4-1.7,9.94,9.94,0,0,0-7.9,3.7c-2.1,2.5-3.2,6.1-3.2,11,0,4.6,1.1,8.1,3.2,10.6a10,10,0,0,0,7.9,3.8,9,9,0,0,0,5.2-1.7,11.84,11.84,0,0,0,3.9-5A18.56,18.56,0,0,0,233.8,89.3Z" transform="translate(-22.3 -32.8)"/><path class="cls-2" d="M299.1,93.3a18,18,0,0,1-2.8,10,19.18,19.18,0,0,1-8.3,7,30.47,30.47,0,0,1-13,2.5c-6,0-10.9-1.1-14.8-3.4a18.43,18.43,0,0,1-6.7-6.6,15.4,15.4,0,0,1-2.6-8,5.28,5.28,0,0,1,1.6-3.9,5.2,5.2,0,0,1,4-1.6,4.45,4.45,0,0,1,3.3,1.3,9.4,9.4,0,0,1,2.3,3.7,24.69,24.69,0,0,0,2.5,4.9,10,10,0,0,0,3.8,3.2,13.25,13.25,0,0,0,6.4,1.3,14.68,14.68,0,0,0,8.9-2.6,7.72,7.72,0,0,0,3.4-6.4,7.14,7.14,0,0,0-1.8-5,11.45,11.45,0,0,0-4.8-2.9,63.55,63.55,0,0,0-7.8-2.1,54.57,54.57,0,0,1-11-3.6,18,18,0,0,1-7-5.7,15.1,15.1,0,0,1-2.6-8.9,15.42,15.42,0,0,1,2.7-9,18.28,18.28,0,0,1,7.9-6.1,32.46,32.46,0,0,1,12.2-2.1,31,31,0,0,1,9.7,1.4,21,21,0,0,1,6.8,3.7,14.54,14.54,0,0,1,3.9,4.9,11.8,11.8,0,0,1,1.2,5,5.67,5.67,0,0,1-1.6,4,4.84,4.84,0,0,1-3.9,1.8,4.42,4.42,0,0,1-3.2-1.1,17.12,17.12,0,0,1-2.4-3.5,15.24,15.24,0,0,0-4-5.4c-1.5-1.3-4-1.9-7.5-1.9a13,13,0,0,0-7.7,2.1,6.24,6.24,0,0,0-2.9,5.1,5.09,5.09,0,0,0,1,3.2,8.68,8.68,0,0,0,2.7,2.3,26.32,26.32,0,0,0,3.5,1.5c1.2.4,3.2.9,5.9,1.6a86.92,86.92,0,0,1,9.3,2.7,29.46,29.46,0,0,1,7.1,3.6,15.64,15.64,0,0,1,4.6,5.3,16.24,16.24,0,0,1,1.7,7.7Z" transform="translate(-22.3 -32.8)"/><path class="cls-2" d="M313.5,61a5.68,5.68,0,0,1-4-1.5,5.35,5.35,0,0,1-1.7-4.1,5.28,5.28,0,0,1,1.7-4,6,6,0,0,1,4-1.6,6,6,0,0,1,3.9,1.4,5.06,5.06,0,0,1,1.7,4.1,5.2,5.2,0,0,1-1.7,4.1A5.28,5.28,0,0,1,313.5,61Zm5.6,11.8v33a7.37,7.37,0,0,1-1.6,5.2,5.24,5.24,0,0,1-4.1,1.8,4.9,4.9,0,0,1-4-1.8,7.87,7.87,0,0,1-1.6-5.2V73.1c0-2.3.5-4,1.6-5.1a5.28,5.28,0,0,1,4-1.7,5.5,5.5,0,0,1,4.1,1.7A6.93,6.93,0,0,1,319.1,72.8Z" transform="translate(-22.3 -32.8)"/><path class="cls-2" d="M366.3,90.4v15.2c0,2.4-.5,4.2-1.6,5.4a5.51,5.51,0,0,1-4.3,1.8,5.45,5.45,0,0,1-4.2-1.8c-1.1-1.2-1.6-3-1.6-5.4V87.4a57,57,0,0,0-.3-6.7,6.91,6.91,0,0,0-1.6-3.9,5.15,5.15,0,0,0-4.1-1.5c-3.7,0-6.1,1.3-7.3,3.9s-1.8,6.3-1.8,11.1v15.5c0,2.4-.5,4.2-1.6,5.4a5.8,5.8,0,0,1-8.4,0c-1.1-1.2-1.6-3-1.6-5.4V72.9a7.18,7.18,0,0,1,1.5-4.9,5.07,5.07,0,0,1,3.9-1.7,5.28,5.28,0,0,1,3.9,1.6,6,6,0,0,1,1.6,4.3v1.1a19.82,19.82,0,0,1,6.3-5.2,16.56,16.56,0,0,1,7.5-1.7,15.14,15.14,0,0,1,7.3,1.7,14.15,14.15,0,0,1,5.1,5.2,20.66,20.66,0,0,1,6.1-5.2,16,16,0,0,1,7.3-1.7,16.59,16.59,0,0,1,8,1.8,11.67,11.67,0,0,1,5,5.3c1,2.1,1.5,5.3,1.5,9.8v22.3c0,2.4-.5,4.2-1.6,5.4a5.51,5.51,0,0,1-4.3,1.8,5.45,5.45,0,0,1-4.2-1.8c-1.1-1.2-1.6-3-1.6-5.4V86.3a45.75,45.75,0,0,0-.3-5.9,6.69,6.69,0,0,0-1.7-3.7,5.29,5.29,0,0,0-4.1-1.5,7.18,7.18,0,0,0-4.2,1.3,9,9,0,0,0-3.1,3.6c-1.1,2-1.5,5.4-1.5,10.3Z" transform="translate(-22.3 -32.8)"/><path class="cls-2" d="M412.1,72.7v1.4a20.58,20.58,0,0,1,6.6-5.8,16.66,16.66,0,0,1,7.8-1.9,17.85,17.85,0,0,1,9.6,2.7,18.78,18.78,0,0,1,6.9,8,28,28,0,0,1,2.5,12.4,29.91,29.91,0,0,1-1.5,9.7,22.76,22.76,0,0,1-4,7.4,17.7,17.7,0,0,1-13.6,6.2,15.68,15.68,0,0,1-8.1-2A22.5,22.5,0,0,1,412,105v17.2q0,7.5-5.4,7.5c-2.1,0-3.5-.6-4.2-1.9a12.39,12.39,0,0,1-1-5.7V72.8a7.53,7.53,0,0,1,1.4-4.9,4.72,4.72,0,0,1,3.9-1.6,5.07,5.07,0,0,1,3.9,1.7,6.47,6.47,0,0,1,1.5,4.7Zm22.2,16.6a20.5,20.5,0,0,0-1.4-7.8,11.51,11.51,0,0,0-3.8-5,8.68,8.68,0,0,0-5.4-1.7,9.94,9.94,0,0,0-7.9,3.7c-2.1,2.5-3.2,6.1-3.2,11,0,4.6,1.1,8.1,3.2,10.6a10,10,0,0,0,7.9,3.8,9,9,0,0,0,5.2-1.7,11.84,11.84,0,0,0,3.9-5,18.56,18.56,0,0,0,1.5-7.9Z" transform="translate(-22.3 -32.8)"/><path class="cls-2" d="M452.6,105.8V56.2a7.87,7.87,0,0,1,1.5-5.2,5.1,5.1,0,0,1,4.1-1.8,5.35,5.35,0,0,1,4.1,1.7,7.87,7.87,0,0,1,1.6,5.2v49.6c0,2.3-.5,4.1-1.6,5.2a5.16,5.16,0,0,1-4.1,1.7,4.9,4.9,0,0,1-4-1.8A7.3,7.3,0,0,1,452.6,105.8Z" transform="translate(-22.3 -32.8)"/><path class="cls-2" d="M505,92.3H482.9a14.06,14.06,0,0,0,1.6,6.9,10.39,10.39,0,0,0,4,4.5,10.58,10.58,0,0,0,5.5,1.5,13.8,13.8,0,0,0,3.7-.5,12.08,12.08,0,0,0,3.3-1.5,22.05,22.05,0,0,0,2.9-2.2c.9-.8,2-1.8,3.4-3.2a4.37,4.37,0,0,1,5.3.2,3.39,3.39,0,0,1,1.1,2.7,7.59,7.59,0,0,1-1.2,3.6,14.66,14.66,0,0,1-3.6,4,20.54,20.54,0,0,1-6.1,3.2,26.93,26.93,0,0,1-8.4,1.3c-7.3,0-12.9-2.1-17-6.3s-6.1-9.9-6.1-17a28.51,28.51,0,0,1,1.5-9.4,19.88,19.88,0,0,1,11.4-12.2,25.24,25.24,0,0,1,9.3-1.7A21.91,21.91,0,0,1,504.9,69a18.41,18.41,0,0,1,7.1,7.3,19.06,19.06,0,0,1,2.4,9.1c0,2.9-.8,4.7-2.4,5.6s-4,1.3-7,1.3Zm-22.1-6.5h20.5c-.3-3.9-1.3-6.8-3.1-8.8a9.49,9.49,0,0,0-7.2-2.9,8.87,8.87,0,0,0-6.9,3Q483.5,80.1,482.9,85.8Z" transform="translate(-22.3 -32.8)"/><path class="cls-2" d="M558.2,97.8a13.31,13.31,0,0,1-9,13.2,29.16,29.16,0,0,1-10.8,1.7,25.1,25.1,0,0,1-10.4-1.9,15.49,15.49,0,0,1-6.4-4.7,9.58,9.58,0,0,1-2.1-5.7,4.22,4.22,0,0,1,1.3-3.2,4.52,4.52,0,0,1,3.4-1.3,3.67,3.67,0,0,1,2.7.9,10.78,10.78,0,0,1,1.8,2.5,12.56,12.56,0,0,0,4.2,4.6,12.41,12.41,0,0,0,6.6,1.5,9.73,9.73,0,0,0,5.6-1.5,4.22,4.22,0,0,0,2.2-3.5A4.81,4.81,0,0,0,545,96a27.66,27.66,0,0,0-7.4-2.6,58.86,58.86,0,0,1-9.5-3.1,17.46,17.46,0,0,1-5.9-4.2,9.66,9.66,0,0,1-2.2-6.5,11.83,11.83,0,0,1,2-6.5,14.74,14.74,0,0,1,6-4.9,22.85,22.85,0,0,1,9.6-1.8,31.78,31.78,0,0,1,7.9.9,17.22,17.22,0,0,1,5.8,2.5,14.81,14.81,0,0,1,3.6,3.4,7,7,0,0,1,1.2,3.7,4.08,4.08,0,0,1-1.3,3.2,5.35,5.35,0,0,1-3.7,1.3,4.53,4.53,0,0,1-3-1,29.16,29.16,0,0,1-2.8-3,12.67,12.67,0,0,0-3-2.7,9.12,9.12,0,0,0-4.7-1,9.22,9.22,0,0,0-5.1,1.3,3.78,3.78,0,0,0-2,3.3,3.69,3.69,0,0,0,1.5,3,11.47,11.47,0,0,0,4,1.9c1.7.5,4,1.1,7,1.8a38.34,38.34,0,0,1,8.6,3.1,15.53,15.53,0,0,1,5.1,4.2,11,11,0,0,1,1.5,5.5Z" transform="translate(-22.3 -32.8)"/><path class="cls-2" d="M74.7,125.1a4.8,4.8,0,0,1-4.8,4.8H27.1a4.8,4.8,0,0,1-4.8-4.8V37.6a4.8,4.8,0,0,1,4.8-4.8H69.9a4.8,4.8,0,0,1,4.8,4.8Z" transform="translate(-22.3 -32.8)"/><path class="cls-3" d="M70.2,111.3a2.11,2.11,0,0,1-2.1,2.1H28.9a2.11,2.11,0,0,1-2.1-2.1v-61a2.11,2.11,0,0,1,2.1-2.1H68.1a2.11,2.11,0,0,1,2.1,2.1Z" transform="translate(-22.3 -32.8)"/><rect class="cls-2" x="7.6" y="27.5" width="10.3" height="10.3"/><rect class="cls-4" x="21.1" y="27.5" width="10.3" height="10.3"/><rect class="cls-4" x="34.5" y="27.5" width="10.3" height="10.3"/><rect class="cls-4" x="7.6" y="41.7" width="10.3" height="10.3"/><rect class="cls-4" x="21.1" y="41.7" width="10.3" height="10.3"/><rect class="cls-4" x="34.5" y="41.7" width="10.3" height="10.3"/><rect class="cls-4" x="7.6" y="56" width="10.3" height="10.3"/><rect class="cls-4" x="21.1" y="56" width="10.3" height="10.3"/><rect class="cls-4" x="34.5" y="56" width="10.3" height="10.3"/><circle class="cls-3" cx="26.2" cy="88.7" r="3.3"/><circle class="cls-3" cx="18" cy="8.8" r="1.8"/><path class="cls-3" d="M58.5,41.7a1.69,1.69,0,0,1-1.7,1.7H45.6a1.75,1.75,0,0,1-1.7-1.7A1.69,1.69,0,0,1,45.6,40H56.8A1.69,1.69,0,0,1,58.5,41.7Z" transform="translate(-22.3 -32.8)"/></svg>