<svg id="Camada_1" data-name="Camada 1" xmlns="http://www.w3.org/2000/svg" viewBox="0 0 136.2 155.47"><defs><style>.cls-1{fill:#ff1741;}</style></defs><title>liv up</title><path class="cls-1" d="M34.69,16.23c-.08.4-.11.67-.19.92L31.2,27.84c-1.85,6-3.76,11.93-5.54,17.92A144.06,144.06,0,0,0,22.38,60c-.69,3.64-1.33,7.29-1.89,11a74,74,0,0,0-1.07,12.87,29.51,29.51,0,0,0,.32,3.52,4.79,4.79,0,0,0,.59,1.62,1.37,1.37,0,0,0,2,.63,4.1,4.1,0,0,0,.78-.46A75.33,75.33,0,0,1,39,80.32a80.5,80.5,0,0,1,8.79-3.25l.87-.22a3.26,3.26,0,0,1,2.59.38,6.59,6.59,0,0,0,3.46.88A2.14,2.14,0,0,1,57,79.87a.58.58,0,0,1-.14.13,46.18,46.18,0,0,0-6.49,3.6A124.47,124.47,0,0,0,35.55,94.42a105.08,105.08,0,0,0-11.64,12c-.74.89-1.51,1.75-2.24,2.66a4.28,4.28,0,0,1-4.77,1.55L14,109.86a2.64,2.64,0,0,0-1.71.07,4.45,4.45,0,0,1-3.38-.08A7.38,7.38,0,0,1,6.18,108a7.33,7.33,0,0,0-2-1.57,5,5,0,0,1-2.76-4.23c-.34-3.36-.7-6.73-1-10.1A153.51,153.51,0,0,1,.05,76.22C.14,72,.37,67.7.82,63.45q1.11-10.39,3.1-20.67A65.56,65.56,0,0,1,7,31.6a23.89,23.89,0,0,1,2.18-4.42,13,13,0,0,1,1.41-1.8,3.48,3.48,0,0,1,2.74-1.13l1.74,0a3.8,3.8,0,0,0,2.45-.85,12.25,12.25,0,0,0,1.6-1.54,14.13,14.13,0,0,1,9.59-5c1.5-.16,3-.26,4.5-.4C33.63,16.42,34.08,16.33,34.69,16.23Z"/><path class="cls-1" d="M83.64,107.19l.68-.29a40.84,40.84,0,0,0,14.32-9.22,17.12,17.12,0,0,0,3.82-5.44c.11-.27.22-.55.32-.84a2.52,2.52,0,0,0-.12-2l-.12-.25a3.5,3.5,0,0,1-.15-2.9c.39-1.06.8-2.12,1.21-3.18a18.77,18.77,0,0,0,1.47-8.21,13.72,13.72,0,0,0-2.13-6.32,4.12,4.12,0,0,0-1.62-1.39,7.8,7.8,0,0,0-8.66.9,9.75,9.75,0,0,0-2.38,3,33.4,33.4,0,0,0-2.52,6.24,102.72,102.72,0,0,0-3,12.69q-1.2,6.7-2.2,13.44c-.47,3.19-.82,6.39-1.17,9.59s-.65,6.22-.92,9.34q-.3,3.39-.46,6.8c-.12,2.54-.19,5.09-.24,7.64a11.22,11.22,0,0,0,.16,2.08,3.24,3.24,0,0,1-.44,2.4,9.59,9.59,0,0,1-1.4,1.71c-.64.63-1.39,1.15-2.07,1.75s-1.56,1.38-2.28,2.12a1.43,1.43,0,0,1-1.55.26,2.84,2.84,0,0,1-1.43-1.06,9.55,9.55,0,0,1-1.4-2.54,36.14,36.14,0,0,1-1.82-6.84c-.58-3.17-1-6.37-1.27-9.57-.18-1.8-.47-3.59-.57-5.39-.13-2.45-.18-4.91-.18-7.37,0-2,.08-3.89.22-5.84q.33-4.5.8-9A100.65,100.65,0,0,1,68.19,89c.55-2.6,1.25-5.17,2-7.71A27.62,27.62,0,0,1,77.18,70,48.48,48.48,0,0,1,102,57.13a28.34,28.34,0,0,1,7.69-.44A14,14,0,0,1,120,61.9,14.94,14.94,0,0,1,123,69a26,26,0,0,1-1.83,13.61,24.29,24.29,0,0,1-3.33,5.92A72.07,72.07,0,0,1,98.94,106a25.86,25.86,0,0,1-6.7,3.16,22.53,22.53,0,0,1-2.31.48,2.56,2.56,0,0,1-1.49-.17,6.28,6.28,0,0,0-2.71-.5A2,2,0,0,1,83.64,107.19Z"/><path class="cls-1" d="M73.38,41.6c.2-.21.4-.43.59-.65C78.69,35.46,83.48,30,88.48,24.81a191.7,191.7,0,0,1,16.3-15.44A63.14,63.14,0,0,1,115,2.22c1.16-.62,2.4-1.1,3.6-1.64a7.45,7.45,0,0,1,4-.51,23.14,23.14,0,0,1,5.27,1.19,8.15,8.15,0,0,1,2.59,1.45,5.85,5.85,0,0,0,1.12.7,10.86,10.86,0,0,1,3,2.14A7.75,7.75,0,0,1,135.72,7a3.26,3.26,0,0,1-.19,3.67,7.53,7.53,0,0,1-2.29,2.1c-2.28,1.42-4.56,2.85-6.85,4.25-3.92,2.38-7.9,4.67-11.66,7.3-1.84,1.29-3.63,2.66-5.37,4.08a29.39,29.39,0,0,0-2.86,2.83,4,4,0,0,1-2.67,1.45,6.56,6.56,0,0,0-3,1.16,25.63,25.63,0,0,0-3.94,3.18c-2.76,2.63-5.26,5.5-7.79,8.33Q83.24,52,77.32,58.52c-1,1.13-2.14,2.18-3.24,3.24a7.22,7.22,0,0,1-3.89,2,13.61,13.61,0,0,1-2.21.16c-1.37,0-2.74-.08-4.1-.11-.73,0-1.06-.18-1.24-.87a38.42,38.42,0,0,1-1-4.19,95.59,95.59,0,0,1-1-17,47.19,47.19,0,0,1,.94-9.18,17.33,17.33,0,0,1,.73-2.32,4.91,4.91,0,0,1,.69-1.11,1.18,1.18,0,0,1,1-.47,14.3,14.3,0,0,1,3.51.44,3.72,3.72,0,0,1,2,1.29,14.72,14.72,0,0,1,2.8,5.84A25.16,25.16,0,0,1,73.16,41a4.51,4.51,0,0,0,.07.53Z"/><path class="cls-1" d="M50.53,147.59a11.45,11.45,0,0,1-2.45-2.31l-.52.62a28.71,28.71,0,0,1-10,7.89,16.52,16.52,0,0,1-8.85,1.58c-5.42-.6-9.75-3.26-11.54-9.48a28.33,28.33,0,0,1-1-6.66c-.13-3.25.1-6.49.29-9.73a6.51,6.51,0,0,1,.77-2.78,8.17,8.17,0,0,0,.72-3.37c.11-1.09.24-2.17.42-3.24a4.17,4.17,0,0,1,1.46-2.46A39.64,39.64,0,0,1,30,111.28a6.54,6.54,0,0,1,2.62-.62,2.56,2.56,0,0,1,.55,0c.9.2,1.16.64.85,1.51a71,71,0,0,0-3.29,14.61c-.38,3.08-.67,6.17-.91,9.26a18.76,18.76,0,0,0,.51,6.42,8.48,8.48,0,0,0,.83,2.05A3.18,3.18,0,0,0,35.41,146,7.9,7.9,0,0,0,38,144.3a16.05,16.05,0,0,0,2.87-3.74,23.37,23.37,0,0,0,1.94-4.37,1.94,1.94,0,0,0,.07-1.09,75.38,75.38,0,0,1-1.41-11.3c-.23-3.91-.24-7.83-.08-11.74,0-.67.07-1.35.14-2a5.4,5.4,0,0,1,.78-2.5,6,6,0,0,0,.87-2.83c.11-1,.21-2.12.36-3.17a5,5,0,0,1,2-3.43,48,48,0,0,1,12.51-7,7.65,7.65,0,0,1,1.88-.43,3.5,3.5,0,0,1,1.43.18A.84.84,0,0,1,61.94,92c-1.23,5.09-2,10.27-2.73,15.45q-1,6.4-1.4,12.85c-.27,3.91-.44,7.82-.36,11.74A37.46,37.46,0,0,0,58,138.5a14.24,14.24,0,0,0,.58,2,1.2,1.2,0,0,1-.51,1.66A5,5,0,0,0,56.19,144a2.17,2.17,0,0,1-.79.64c-.46.25-1,.43-1.45.66A11.44,11.44,0,0,0,50.53,147.59Z"/><path class="cls-1" d="M33.7,63.28a97.57,97.57,0,0,1,1.37-13.46A6.68,6.68,0,0,1,37,46.15a35.73,35.73,0,0,1,7.82-5.85,15.82,15.82,0,0,1,1.45-.67c1.1-.48,2.21-.94,3.32-1.4A14.48,14.48,0,0,1,51,37.69c1-.27,1.52.1,1.52,1.09,0,1.2-.09,2.41-.19,3.61-.14,1.73-.31,3.46-.49,5.18-.3,2.86-.59,5.72-1,8.56-.27,2.18-.57,4.37-1,6.52a17.89,17.89,0,0,1-5,9.48,27.66,27.66,0,0,1-4.4,3.38,6.69,6.69,0,0,1-1.84.79,1.67,1.67,0,0,1-2.28-1.38c-.08-.34-.12-.68-.18-1A10.69,10.69,0,0,0,35,70.49,9.84,9.84,0,0,1,33.7,65C33.72,64.4,33.7,63.78,33.7,63.28Z"/><path class="cls-1" d="M40.11,26.41A11.27,11.27,0,0,1,41,22.69a9,9,0,0,1,5.27-5.05A21.28,21.28,0,0,1,53,16.14a8.15,8.15,0,0,1,2.2.23A2.32,2.32,0,0,1,57,18.73a7.71,7.71,0,0,1-.53,2.85A24.13,24.13,0,0,1,54,26.47q-1.64,2.55-3.39,5a17.32,17.32,0,0,1-1.92,2.1,4.54,4.54,0,0,1-2.24,1.2,4.78,4.78,0,0,1-4.75-2.06,9.62,9.62,0,0,1-1.49-4.37C40.16,27.7,40.15,27.05,40.11,26.41Z"/></svg>