<svg id="Camada_1" data-name="Camada 1" xmlns="http://www.w3.org/2000/svg" viewBox="0 0 232.91 191.89"><defs><style>.cls-1,.cls-2{fill:#070308;}.cls-2{font-size:30.21px;font-family:DKMidnightChalker-Regular, DK Midnight Chalker;}.cls-3{letter-spacing:-0.04em;}.cls-4{letter-spacing:-0.04em;}.cls-5{letter-spacing:-0.03em;}</style></defs><title>Prancheta 64</title><polygon class="cls-1" points="28.26 30.6 46.62 30.6 51.49 86.48 59.77 45.06 66.59 47.01 58.96 100.58 41.42 100.58 36.38 53.83 31.02 88.91 26.15 88.91 28.26 30.6"/><path class="cls-1" d="M72,47.33,69.68,91h33.95l2.43-41.41Zm26.88,29.2L75.08,81.16l1.1-15,22.65.73Z"/><path class="cls-1" d="M152.72,34.87,143.05,91H177l7.84-56.15Zm21.6,40.4H152.8L155.4,49l22.66.73Z"/><polygon class="cls-1" points="111.24 44.85 115.38 44.85 118.18 69.18 132.68 27.19 146.81 27.19 133.41 91.02 112.09 91.02 111.24 44.85"/><polygon class="cls-1" points="184.84 91.14 218.58 91.14 217.97 73.67 210.66 73.67 209.45 85.91 201.16 85.91 201.71 64.95 217.24 64.95 220.41 34.87 193.37 34.87 191.05 52.29 196.41 52.29 198.73 43.03 204.09 43.03 203.36 57.89 190.08 57.89 184.84 91.14"/><polygon class="cls-1" points="43.99 143.92 59.85 142.35 58.23 191.89 32.89 186.37 43.99 143.92"/><rect class="cls-1" x="47.83" y="115.87" width="9.1" height="17.87"/><path class="cls-1" d="M37.36,135.85,34.43,96.71,0,104l.65,81.7H17.22l-2.44-49.87ZM14.41,113.07H19.9v15.72H14.41Z"/><path class="cls-1" d="M65.82,103.21l-.85,38H76.79L65,171.06,69.68,174,87,147.42v38.3h16.87v-86ZM89.94,136.7H83.61V117.09h6.33Z"/><path class="cls-1" d="M134.28,100.58H111.62v55.25h5l1.7-19.73h6.22l2.56,19.73h13.27Zm-15.71,29.55,1.7-21h3.29l1.34,21Z"/><polygon class="cls-1" points="141.96 100.58 187.52 100.58 187.52 107.83 171.44 107.83 171.44 155.83 148.78 155.83 159.25 113.07 142.14 113.07 141.96 100.58"/><path class="cls-1" d="M195.39,117.17H178.83l-2.44,38.66h6.7l1.38-13.14h4.1l1,13.14h11.17Zm-7.2,21.61h-3.32V126.11h3.32Z"/><polygon class="cls-1" points="231.61 100.58 200.74 100.58 200.74 128.21 211.76 128.21 212.49 173.03 179.72 173.03 179.72 179.48 232.91 183.35 223.57 119.65 208.1 119.65 208.1 108.44 224.79 108.44 224.79 113.92 231.61 113.92 231.61 100.58"/><polygon class="cls-1" points="111.24 174.72 111.24 178.19 125.49 178.19 125.49 173.19 111.24 174.72"/><path class="cls-1" d="M51.09,21.63v-.12l-.07.12-.27-.39-.15.06L50.54,21l-.21.07.09-.46-.09-.36v-.76l-.12.28v.21h-.15v.15h.15v.48l-.27.27-.06-.48h-.27v-.15l.15-.42-.15.09.15-.37-.09-.24.09-.12-.09-.09v-.63l.09-.18V18l-.15.1.06-.37.09-.18-.09-.48v-.33l-.13-.49.13-.48v-.39h-.13l-.09-1-.18-4.86-.09-.25-.06-1.14.09-.12-.09-.61V6.68l-.21-1.36v-1l-.06-.3V3.14L48,3.47l-.54-.18L47.1,3l-.46-.57-.3-.15V2l.15-.24.18-.09.1-.15.06.09.09-.09,1.33-.27h.33l.27-.12h.54l.67-.18h.36l.06-.09h.27V1L51,.79h.22l0,.15.36-.18V.94h1.09l.39.27.12-.09v.12l.3-.12-.15.21.21-.09-.09.12.36.09.09.33h.22l.09.36.12.1-.18.12-.06.12h-.22l-.12-.09H52.66l-.28.15h-.15l.09-.06H51.18l-.28.27.06.39.13,2.06.09.12,0,1.08.09.13V7.82l.06.12V9l.12,2.3.09.21v1.27l.06.15v1.27l.06.09V15l.06.18v.61l-.06.15.06.39.09.15-.21.76h.21V18l-.09.34.09.21V19l-.09.15.09,0-.21.37.21.06v.12l-.15.21v.66l-.21.64.15-.15-.09.51-.36.18-.09.33L51,21.84Zm-1.42-1.42h.12l.15-.12Zm.66-1.78v-.67l-.06-.12-.09.36Zm0,.9.12-.3-.21.21Z"/><path class="cls-1" d="M57.76,22.17l-.3.12L57.4,22l-.09.36-.09-.15-.12.06h-.24l-.16.09-.06-.15H56.4l-.12-.12v-.48l-.51-5.56V14.71l-.15-1.15.12-.12v-.21l-.18-.15V3.17l.09-.12-.09-.33-.15.06.15-.21.09-.73.09.12,0,.43.18.09.15-.64.06.21.18-.33.18.18.34-.45.45.06h.75l1.06.21,2.12.73.18.12h.12l.63.33v.15h.21v.24h.25l.36.43.39.66V4.8l.09.09-.09.58.15-.06-.15.27v.15l-.21.39h.12l-.66,1.3-.25.21h-.15l-.24.4v.15l-.24.42H61.6l-.09.15,0,.09-.33.21h.21l-.09.12L61,9.36l-.36.22-.21.36-.6.51,1,1.12L61,12l.16.12.09.4.18-.06-.09.42h.18v.42l.12.15v.46l.12.06,0,.75.12.09-.12.12.09.06.06.25-.09.18.15.18v.3l.18.33v.46l.12.42v.51h.18v.24l.07.15v.22l.09.06-.09.27.15.06v.27l.18.39,0,.49.09-.21.18.39-.12,0v.15h.24v.27l.09.09.15.36-.06.12.18,0,0,.22.21.12v.18l.49.51-.27.06L63.62,22l-.48-.33-.27.09-.18-.09h-.52l-.42-.36-.51-.94-.06.15-.61-1.21-.45-1.42v-.51l-.48-1.6V15l-.28-.81-.09-.58-.21-.57.15-.12-.15-.3-.3-.79-.3-.42-.06-.21L58.15,11l-.09.09v.12l.12.12L58,11.6l.12.12-.12.54.12.13-.09.18v.3l.09,0v.27l.1.18-.1.21-.09.52.16.33-.1.12,0,.63-.09.13.09.09.07.69-.1.12.16.64-.06.27.24.15-.12.6.18.06-.06.09h-.18v.28l.18-.15-.06.36-.12.06.12.18.06.72-.06.1.06.12-.24.21-.07-.09v.15l.13,0v.3H58l-.09.27.31.12-.22.4v.15h.22l.06.39.12-.27.15.36-.09.12-.06.36L58.22,22v.27h-.16L58,22.17l-.15.21ZM56.49,12.9v-.12L56.4,13Zm.28,5.32.09.09v-.18Zm1.45-9.16.24-.3h.15l.06-.15.15-.12.06-.15h.18l.54-.46V7.67l.16-.06-.12-.09V7.4l.6-.78.27-.13.06-.36L60.75,6l.18-1.09v-1l-.18-.4L60.15,3,58.7,2.63h-1L58,5.41l.15,3.11Z"/><path class="cls-1" d="M71.81,10.81h.12l.15.1-.06.15-.42.36h-.33l-.06-.36h-.13l-.18.15h-.39l-.27.3-.27.15-.09.12h-.12l-.19.21h-.36v-.15l-.18.09h-.51v.21H68l-.42.25-.09-.1-.09.1v.48l-.06.18v.33l-.06.09.12.09-.06.28v.51l-.15.57.15-.21.06.09v.61l-.09.45.15.15-.12.27v1.24l.21.42-.15.25v.15l-.12.27.21.09V19l.09.18v.15h.18l.88-.39.9-.21.13-.09h.63l.12-.18.09.18.3-.15.49,0,.42-.18.18.09.36-.18.25.18.48.12v.24l-.09.15v.3l-.61.43-1.17.33-.07.18h-.39l-.12.15-.48.06L69,20.84h-.12l-.76.49-.36.09-.15.15H67.1L67,21.51h-.55l-.57-.3h-.39l-.06-.58.06-.39.15-.21-.06-.55-.21-.33.06-.42-.16-.18v-.88L65.19,17l.13-.3-.13-1.12.06-.12.16,0-.22-.12.06-.31-.06-.21V13.38l.06-.15V13l.1-.42-.1-.31v-.72l.1-.39.06-.43.06.12.21-.3h.15l-.09-.15.18-.27.09.42.09-.06V10H66V9.58l-.12.3V10l-.15.21h-.27l-.16-.15-.06-.21V9.64l.09-.18-.69-7.35-.09-.27V1.33h.3l.21.06h.4l.06.12.15-.12v.12h.21L66,1.39v.12l.21-.12h2.18l.06.12h.27l.21-.12-.09.12h.27l.21,0,.18-.09.43.18.33-.15.09.06h.39l.15,0,.06.12h.43v.15l.15.06L71.33,2l-.06.25h-.15L71,2.39l.09.09L71,2.66l-.09-.09-.24.09-.12.24L70.15,3H70l-.18.15-.12.24h-.46l-.21-.09-.18.21h-.21l-.06.16-.09-.19-.3.09L68,3.53l-.12.06-.12-.06-.36.16L67,3.78l.12,1.66v.69l.09.15V8.1l.06.3v.75h.12v1.06L69.15,10l.61-.15h1l.4-.12.3.12.54.45-.09.12,0,.24-.09-.09-.15.15v.16l-.15.21-.12.09h.36l.06-.24Zm-6.13,9.28.06.54v-.75Zm.06-6.71.09.46,0-.52Zm.21-.33L66,13l-.15-.09Zm.15,6.25L66,18.85l-.09.94Zm5-8.06-.34.54.21-.54Z"/><path class="cls-1" d="M76.52,21.06l-.06.48-.09-.39-.24-.09-.09.15h-.12l.09-.09L75.86,21l.18-.21L76,20.69l0-.33-.09-.06v-1l.09-.33-.09-.54-.18.09.09-.15-.15.15.06,1.72-.06-.15-.09.54-.09-.09-.07-.36L75,19.79v-.61l-.15-.24.15-.42V17.4L75,17.07v-.55l.06-.15L75,16V12.33l.06-.16-.18-.33L75,10.78V8L75,7.85l-.12-.09.27-.6V7L75,7.1,75,6.74V4.56L75.1,4V3.5L75,3.69,75,2.45h.3l.34-.7-.18-.09.18-.12.06-.18.21.06L76,1.36l.12.18.48-.18.12.12h.31l.18.7L77.37,6l-.12.12.12.12V9.18l-.12.34.12.24v3l.12.12-.12.33.21.39-.09.09.09.31-.09.3v1.6l.09.06-.09.09v1.72l-.12.33v.22l-.09.27.21-.12-.12,1.05.15.13-.15.36v1.24l-.12.09v.24l-.06.12-.12-.06v-.24h-.15l-.25.3,0-.36ZM75,20.15l.3.3-.21.18v-.15Zm.15-.57.12-.4-.12-.06Zm.49-2.69.18.57v-.78Z"/><path class="cls-1" d="M81.3,2.05l.09-.21.21-.06.09.12v.37l.18.24L82,2.42v.24l.09.06.39,1.12.16.18.51,1.48.09.09.27.75v.15l.21.46L83.65,7l.21.21v.6l.25.22.06.21.12.12v.24l.3.48v.31l.21.12v.21l.12.42.09.09.12.36v.25l.06.15-.06.12h.15l.28.57V12l.18.49v.15l.27.63.09.36v.16l.21.42v.12l.06.09.21.72.09.07.12.51-.06.15.12.15.16-.15v-1l.09-1,.06-.16-.06-.48V12.17l.06-.45V4l.09-.21-.09-.12V2.42l-.06-.15L87.22,2l-.12-.12.06-.12h.12l.18.21.12-.21,0,.24.15.25.42-.43.09.21.22-.12L88.7,2l-.09.15h.15L88.85,2l.45.34v.54l.06.24v.64l.09.09-.09,0v.39l.09.21v.7l-.15.45.21-.09-.27.3v.12l.12-.06L89.3,6h.15v.3l-.15.61v.3l-.06.51.06.09L89.24,9,89,9.12h.21l.12-.06-.06,1.21-.09.33.15-.12v.46l.09.21-.15.27-.06-.15.06.45-.06.45v.12l.12.31-.06,1.75-.06.09v.45l.06.34v.87l-.12.24.12.34-.06.18V18l-.06.16V20.3l.06.94.06.21v.12l-.06.36L89,22h-.18l-.15-.15-.46-.15h-.12l-.21-.27-.15.18-.18-.24h-.42l-.22-.21-.15-.4h-.12l-.09-.06.12-.12-.12-.09L86.37,20l-.24-.94L86,18.94l-.12.06.06-.15-.18-.42v-.18l-.09-.09L85.56,18v-.21l-.22-.24V17.4l-.06-.09V17h-.15v-.27l-.06-.09v-.31l-.24-.21-.18-.54v-.15l-.21-.64h-.15v-.57l-.12-.12L84.11,14v-.31L84,13.53v-.15l-.15.06.12-.3-.39-.91-.09-.06.09-.15v-.21l-.15-.09-.12-.54-.09,0,0-.21L83,11l.12-.25-.18-.36v-.3l-.21-.21V9.7l-.16-.43-.27-.42v.36l-.09.15.12.91-.12.06.09.09v1.69l.12.31-.12.39L82.35,14l-.06.39.15-.06-.09.15v.63l-.06.52.06.63-.06.09.12.06-.15.15.09.13-.06.66v.63l-.09.31v.18l-.06.09v.15l.15-.09-.09.24v.91l.15.09-.15.33.09.3v1.33l.15.09-.15.15-.18-.12-.09.18h-.15l-.06-.24-.36-.27H81.3l0,.15L81,21.57l-.12.06.06-1.33h-.21v.21h-.15l.15.36.06.37-.12.27-.06-.27-.09-.06v-.4l-.06.25h-.21l-.15-.46v-.48L80,19.42l.21-.48-.15-.21V16.49l.09-.27V16l.06-.15-.06-.15v-.33l.06-.09L80.09,15l.27-.45-.21-.21-.09-.18v-.67l.15-.15-.15-.12V12.11l.09-.57L80.06,11l.12-.22L80,10.27V8.94l0-.3V7.49l-.15-.84-.18-3.84-.28-.6V2.05L79.54,2l-.15-.21.24-.09V1.45l.31-.21.63.27h.18l.12.39L81,1.66l.15.39Zm-.61,17h.15v-.54l-.21.12.15.18Zm.18-1.63L80.75,17l-.09.72Zm-.18-4.56.15.06v-.3Zm0,.78.18-.15L80.69,13Zm0,2.63h.12L80.75,16ZM80.87,20l-.18-.42v.57Zm6.89-8.13.09-.06v-.66L87.76,11l-.06.18Zm.09-8.31.24-.24-.33-.12v.21Zm0,9,.12-.28h-.21Zm-.09,1.84.09-.06v-.48Zm.09-10.27L87.91,4V3.81Zm1.24,8.64.15.09-.06-.15Z"/><path class="cls-1" d="M91.33,20.63l.12-.18v-.33l.33-.54-.12.72-.09.12.12.3-.27.15Zm.39-1.75-.12-.54h.12l.06-.12.18.12V18h.18l-.12.61-.12.18.09.45-.09.21-.24.1-.09-.4Zm6.55,1.57.09.12-.15.06L98,21v.39l-.18-.24v-.31l-.09.06,0,.43-.12-.43-.12.1,0,.21-.09-.31-.06.1v.39l-.06.09-.06-.09-.09.24h-.16l-.12-.15-.09.06L95.52,15l-.06.31-.21.18-.18.27-.33.18-.57.54-.25.52-.27.93v.16l-.21.42h.21V19l-.06-.09-.21.15v.58l-.09.21v.39h-.12v.33l-.09.52v.48l-.18.3-.12-.42-.1.36-.09-.3h-.18l.12-.33.15-.15v-.28h-.15l0-.18-.12.3.12.22h-.15l-.12.72-.09-.09-.06-.3-.12.15v-.21l-.09.06-.09-.18.09-.06v-.43H92l.06-.12.12.27.15-.45-.21-.21V20L92,19.88v-.3l.12-.28v-.24l.15-.15v-.78l.06.12.12-.12.12-.58,0-.09.12-.39L92.53,17l-.18.36.06-.27-.09-.24h-.18L92,16.22v-.75l.12-.18H92l.06-.1.06-.21.09-.09V14.2l.18-.27-.15-.15.15-.85.09-.15,0-.61.15-.18-.09-.21.22-.24.09.3.24-.3h.12l.15-.18-.12-.7-.15-.15,0,.24v.55H93l.12-.15v-.24L93,10.85v-.19H92.9V9.49L93,9.12l.12-.18v-.6L93,7.91l.12-.06.06-.33-.06-1.27h.12V5.59l.12-.79V4.32l.21-.48V2.27l.12-.16V2L93.59,2l.06-.54V1.12L93.8.79h.61l.06-.16.09.06h.12l.12.1.57.06.15.18h.31l.24.21v.33l.27,1.09v.6l.21,2.06v.6l.06.18v.82l.12-.06L96.67,7v.42h.12l-.12.24.06.18v.22l.06.33,0,.45h.12l0,.73.1.27v.57l.12.33.06.46-.06.15.06.18v.24l.12.15-.06.91.21.33-.06.54.15.07-.12.33v.54l.15.18.09.21,0,.43.15.15v.21l-.09.27.12,1.18.12-.12V18l.15-.09-.12.55.18.21.09.27-.09.67-.06.21V20h-.15l.06.15.24-.3.13.3.15-.09-.15.39-.13.12V20.3Zm-6.37-3V17l.33.12v.57l-.33.24,0-.15Zm.18,4.2L92,22H91.9v-.21Zm.06.45-.06.4H92l.06-.4Zm.36-3.56.12-.21v-.12l-.12.18-.09-.15-.06.39.06-.15Zm0-4.44.15.09v-.27Zm.15,6.28.07-.09-.07-.15Zm.13-9.24-.06.15.06-.33Zm.09,7.4v-.33l-.12.33Zm2.62-4L94.86,10l-.12.3-.18,1.36,0,.15-.12.51v.4l-.09.3-.06.79-.15.6v.15l.69.06.51-.15ZM98,20.69l.06-.12L98,20.3Z"/><path class="cls-1" d="M99.6,2.57l-.09.15V2.33Zm2.21,18.94-.09-.21-.15.21-.06.39-.09-.15h-.16l-.06-.15v-.15h.16l.06-.42-.22.12.06-.31.16-.24h-.16l.1-.06v-.15l-.1-.09-.15-.82.09-.15V19l-.15.09v-.24l-.09-.15v1.51l-.18.15-.06-.09V20l-.09-.06-.21.75-.15-1.21.09-.15v-.15l-.12-.12.12-.33-.15-.67.06-.24-.06-.21V16.49l-.15-.57.06-.79v-.45l-.09-.12.09-.27L100,14v-2.9l.15-.21-.06-.16-.09.16V10.6l.12-.12-.12-.12.09-.06-.12-.75.12-.25L100,8.94v-.6l-.16-.15.1-.31.06-.36-.06-.09.21-.6L100,6.71l-.19-.64.19-.21h.15L100,5.71V5.38l.24-.12h.15V5.11L100.12,5l-.31.07.25-.31V4.29l-.25-1.12V2.48l.28-.52h.27l.15-.15h.57l.18-.24.1.15h.81l.91,2,.21.3.15.36.15.76.15.15.45,1V6.4l.1.06.06.31.09.06v.3l.21.45.09.55.15-.09-.15.24.21.3.24.75V10l.21.15.06.36-.06.09.15.61.09.12-.09.18.22-.09v.33l.15-.63.3-.91.45-1V9l.3-1,.25-.52V7.28l.6-.51V6.1l.06-.09v-.3l.36-.36.15-.31.09.07.06-.16v-.3l.52-.72h-.21V3.62l.39-.18V3.23l.21-.51V2.48l.15-.15.18-.79.12-.27.09.15V1.21l-.09-.09L110,1V.69l-.15-.15.06-.45.09.15.16-.24.06.09.45.06L110.6.3l.06.09.15-.15H111l.3.06.4.15h.15l.15.09h.18l.12.22.21,2.56.15.46V6l.09,1.48-.12.61h.18V9.39l.1.22-.1.09.1.06v1.45l.06.39-.13.45H113l-.09.21.06.31.09.09-.15.9.15.15-.09.07v.39l.09.06-.09.06v.3l.09.09-.09.15.09.06L113,15v1.27l.09.09-.15.09.15.12-.09.52.09.3v1.3l.06.15-.06,1v.36l.15-.06-.15.21v.3l.06-.3v1.3l-.15.06h.27l-.18.39L113,21.9l-.16.15-.09-.21.09-.18h-.3l-.06.45-.24-.81-.06.3-.09-.09-.15.09-.06-.09.06-.15V21l-.15.06v.15l-.06.09-.15-.55-.09-.21-.16.3v-.15l-.06-.09-.09-.21-.06.21-.15.15-.09-.06V20.3l-.09-.09.09-.21h-.18l.24-.61-.12-.12-.06-.39v-.45l-.09-.06.09-.31-.15-.6V15.65l.09-.33,0-.19v-.24l.09-.15.06.24v-.45l-.15.06-.06-.15v-.51l.06-.15h-.15V11.51l.09-.24-.15-.46V9.7l.21-.21V9.33l-.06-.09.06-.15-.21-.42-.09.36V8.64l.09-.3V7.58l-.09-.3-.06-.66-.31.66-.09-.21-.09.3.12.12-.21.67-.18.18v.3l-.15-.06-.09.21.12.09-.12.21-.15.52L109,9.7l.09.09-.24.36v.48l-.21.12v.31l-.1.21V11l-.15.3v.48l-.21.21-.15.76-.3,1-.15,1.48v.25l-.21.21h-.25l-.15.09-.15-.15-.09.09-.42-.21-.24.12-.36-.3-.25.06-.27-.16H105l-.51-.81-.21-.21v-.24h-.13l-.18-.52-.09-.15L102.2,8l.12,2.77.15,1.45v1.91l.15-.09-.15.21v.24l.15.21-.12.79.18.18-.21.33.06.15.09,1.18.06.24-.06.21v.61l-.12.27.18-.12v1.87l-.15.15v.24l.09.06.06.25-.57.6-.21.15-.09-.09Zm-1.18-9.46.15-.45-.15-.63-.12.69h-.15v.24l.06-.09.15.09Zm0,8.79.09-.24.24-.21-.06.82-.12-.46Zm.27-4.35.15-.48-.27.12v.58l.12-.46Zm0,4.87-.12.09V21.3Zm.06-2.84.15-.18-.06-.73-.24.21.15.55Zm1.3,2.23v-.21h-.15l.06.15Zm0,.46V21l-.09.15Zm.06.69v-.24h.21l.15-.3.1.75-.25.24V22Zm5.89-14.62.12-.36-.09-.09.09-.06-.09-.06-.06-.09-.09.3Zm.33-1,.31-.54V5.5l-.21.15V6ZM108.85,5l.15-.3V5l.15-.15V4.35H109V4.14Zm.3.16.18-.28-.09-.12-.15.31Zm.24-1.06.06-.3-.21-.09Zm-.09,1.51.15-.3-.15.15Zm.39-2.33.15-.09L110,2.9l-.09-.18h-.18l-.15.45h.12Zm.15-.9L109.9,2l-.15.22Zm.52,5.92-.06.09.06-.3Zm.75,11.3.09-.43-.24.43Zm0,.66.18-.54.19.09.09-.21-.09-.16v-.15l.09.09-.09-.24-.16.15v.25l-.3.36v.21Zm0-10.15.15-.15.06-.24-.21-.27Zm.15,4.23.06-.15-.06-.15Zm.06,1.21v-.15l-.06-.09Zm.09,3.53.16-.09v-.9h-.16Z"/><path class="cls-1" d="M122.38,10.81h.12l.15.1-.06.15-.42.36h-.33l-.06-.36h-.12l-.18.15h-.4l-.27.3-.27.15-.09.12h-.12l-.18.21h-.37v-.15l-.18.09h-.51v.21h-.48l-.43.25-.09-.1-.09.1v.48l-.06.18v.33l-.06.09.12.09-.06.28v.51l-.15.57.15-.21.06.09v.61l-.09.45.15.15-.12.27v1.24l.21.42-.15.25v.15l-.12.27.21.09V19l.09.18v.15h.18l.88-.39.91-.21.12-.09h.63l.12-.18.09.18.3-.15.49,0,.42-.18.18.09.36-.18.25.18.48.12v.24l-.09.15v.3l-.6.43-1.18.33-.06.18h-.4l-.12.15-.48.06-1.06.54h-.12l-.75.49-.37.09-.15.15h-.54l-.12-.06H117l-.57-.3H116l-.06-.58.06-.39.15-.21-.06-.55-.21-.33.06-.42-.15-.18v-.88l-.06-.66.12-.3-.12-1.12.06-.12.15,0-.21-.12.06-.31-.06-.21V13.38l.06-.15V13l.09-.42-.09-.31v-.72l.09-.39.06-.43.06.12.21-.3h.15l-.09-.15.18-.27.09.42.09-.06V10h-.15V9.58l-.12.3V10l-.15.21H116l-.15-.15-.06-.21V9.64l.09-.18-.7-7.35-.09-.27V1.33h.3l.21.06h.4l.06.12.15-.12v.12h.21l.12-.12v.12l.21-.12h2.18l.06.12h.27l.21-.12-.09.12h.27l.21,0,.19-.09.42.18.33-.15.09.06h.39l.15,0,.07.12h.42v.15l.15.06L121.9,2l-.06.25h-.15l-.12.15.09.09-.09.18-.09-.09-.25.09-.12.24-.39.12h-.12l-.18.15-.12.24h-.46l-.21-.09-.18.21h-.21l-.06.16-.09-.19-.3.09-.18-.06-.13.06-.12-.06-.36.16-.45.09.12,1.66v.69l.09.15V8.1l.06.3v.75h.12v1.06l1.78-.18.61-.15h1l.4-.12.3.12.54.45-.09.12,0,.24-.09-.09-.15.15v.16l-.15.21-.12.09h.36l.06-.24Zm-6.13,9.28.06.54v-.75Zm.06-6.71.09.46,0-.52Zm.21-.33.06-.09-.15-.09Zm.15,6.25-.09-.45-.09.94Zm5-8.06-.34.54.22-.54Z"/><path class="cls-1" d="M127.31,2.05l.09-.21.21-.06.09.12v.37l.18.24.15-.09v.24l.09.06.39,1.12.16.18.51,1.48.09.09.27.75v.15l.21.46-.09.09.21.21v.6l.25.22.06.21.12.12v.24l.3.48v.31l.21.12v.21l.12.42.09.09.12.36v.25l.06.15-.06.12h.15l.28.57V12l.18.49v.15l.27.63.09.36v.16l.21.42v.12l.06.09.21.72.09.07.12.51-.06.15.12.15.16-.15v-1l.09-1,.06-.16-.06-.48V12.17l.06-.45V4l.09-.21-.09-.12V2.42l-.06-.15.12-.31-.12-.12.06-.12h.12l.18.21.12-.21,0,.24.15.25.42-.43.09.21.22-.12.21.09-.09.15h.15l.09-.15.45.34v.54l.06.24v.64l.09.09-.09,0v.39l.09.21v.7l-.15.45.21-.09-.27.3v.12l.12-.06-.06.12h.15v.3l-.15.61v.3l-.06.51.06.09L135.25,9l-.21.12h.21l.12-.06-.06,1.21-.09.33.15-.12v.46l.09.21-.15.27-.06-.15.06.45-.06.45v.12l.12.31-.06,1.75-.06.09v.45l.06.34v.87l-.12.24.12.34-.06.18V18l-.06.16V20.3l.06.94.06.21v.12l-.06.36L135,22h-.18l-.15-.15-.46-.15h-.12l-.21-.27-.15.18-.18-.24h-.42l-.21-.21-.16-.4h-.12l-.09-.06.12-.12-.12-.09-.21-.48-.24-.94-.18-.15-.12.06.06-.15-.18-.42v-.18l-.09-.09-.06-.16v-.21l-.22-.24V17.4l-.06-.09V17h-.15v-.27l-.06-.09v-.31l-.24-.21-.18-.54v-.15l-.21-.64h-.15v-.57l-.12-.12-.06-.15v-.31l-.16-.12v-.15l-.15.06.12-.3-.39-.91-.09-.06.09-.15v-.21l-.15-.09-.12-.54-.09,0,0-.21L129,11l.12-.25-.18-.36v-.3l-.21-.21V9.7l-.16-.43-.27-.42v.36l-.09.15.12.91-.12.06.09.09v1.69l.12.31-.12.39.06,1.15-.06.39.15-.06-.09.15v.63l-.06.52.06.63-.06.09.12.06-.15.15.09.13-.06.66v.63l-.09.31v.18l-.06.09v.15l.15-.09-.09.24v.91l.15.09-.15.33.09.3v1.33l.15.09-.15.15-.18-.12-.09.18h-.15l-.06-.24-.36-.27h-.15l0,.15-.31-.15-.12.06.06-1.33h-.21v.21h-.15l.15.36.06.37-.12.27-.06-.27-.09-.06v-.4l-.06.25h-.21l-.15-.46v-.48l-.06-.67.21-.48-.15-.21V16.49l.09-.27V16l.06-.15-.06-.15v-.33l.06-.09L126.1,15l.27-.45-.21-.21-.09-.18v-.67l.15-.15-.15-.12V12.11l.09-.57-.09-.57.12-.22-.15-.48V8.94l0-.3V7.49l-.15-.84-.18-3.84-.28-.6V2.05l.09-.09-.15-.21.24-.09V1.45l.31-.21.63.27h.18l.12.39.09-.24.15.39Zm-.61,17h.15v-.54l-.21.12.15.18Zm.18-1.63-.12-.36-.09.72Zm-.18-4.56.15.06v-.3Zm0,.78.18-.15L126.7,13Zm0,2.63h.12l-.06-.18Zm.18,3.78-.18-.42v.57Zm6.89-8.13.09-.06v-.66l-.09-.12-.06.18Zm.09-8.31.24-.24-.33-.12v.21Zm0,9,.12-.28h-.21Zm-.09,1.84.09-.06v-.48Zm.09-10.27.06-.09V3.81Zm1.24,8.64.15.09-.06-.15Z"/><path class="cls-1" d="M142.08,21.63v-.12l-.06.12-.27-.39-.15.06-.07-.34-.21.07.09-.46-.09-.36v-.76l-.12.28v.21h-.15v.15h.15v.48l-.27.27-.06-.48h-.27v-.15l.15-.42-.15.09.15-.37-.09-.24.09-.12-.09-.09v-.63l.09-.18V18l-.15.1.06-.37.09-.18-.09-.48v-.33l-.12-.49.12-.48v-.39h-.12l-.09-1-.18-4.86-.09-.25-.07-1.14.1-.12-.1-.61V6.68l-.21-1.36v-1l-.06-.3V3.14l-.87.33-.55-.18L138.09,3l-.45-.57-.3-.15V2l.15-.24.18-.09.09-.15.06.09.09-.09,1.33-.27h.33l.27-.12h.55l.66-.18h.36l.06-.09h.28V1L142,.79h.21l0,.15.36-.18V.94h1.09l.39.27.12-.09v.12l.3-.12-.15.21.22-.09-.1.12.37.09.09.33h.21l.09.36.12.1-.18.12-.06.12h-.21l-.12-.09h-1.09l-.27.15h-.15l.09-.06h-1.15l-.27.27.06.39.12,2.06.09.12,0,1.08.09.13V7.82l.06.12V9l.12,2.3.09.21v1.27l.06.15v1.27l.06.09V15l.06.18v.61l-.06.15.06.39.09.15-.21.76h.21V18l-.09.34.09.21V19l-.09.15.09,0-.21.37.21.06v.12l-.15.21v.66l-.21.64.15-.15-.09.51-.36.18-.09.33-.06-.27Zm-1.42-1.42h.12l.15-.12Zm.66-1.78v-.67l-.06-.12-.09.36Zm0,.9.12-.3-.21.21Z"/><path class="cls-1" d="M153,20h-.12l-.3.69-.12.15-.27.52h-.12l-.4.6-.15.15h-.36L151,22l-.12.12-.76-.06-.06-.09h-.21l-.12-.15-.06.09-.27-.09-.15-.21-.21-.09h-.21v-.15h-.37L148,21l-.63-.73v-.12l-.31-.45h-.15l0-.15-.15-.25-.15-.06.09-.09-.42-.75-.18-.18.15-.16-.34-.42-.18-.51-.12-.73-.06-.75-.12-.15,0-.46.15-.27-.33-.54-.15-.15L145,13l-.09-.15.06-.09v-.3l-.15-.28.12-.6-.18-.51.12-.12H145l.09.15v-.31l-.09-.24,0-.6.06.15h.3V9.94l-.18-.15.15-.15.15.09,0-1.06.24-.24-.24,0,.39-.24V7.91l-.15.1,0-.25.09-.06-.12-.09.15-.18.13.18.12-.15L146,7.25h.12l.09.06.06-.3-.21.12.12-.51-.28,0,.07-.12.48-.61H146l-.09-.06-.07.15-.12-.12-.12.27-.06-.24,0-1.21.3-.21.1-.15h-.13l.19-.42-.1-.09.25-.55-.09.46.24-.31V3.08l.15-.09.12-.21h.18v-.3l.27-.15h.12l.31-.25v.16l.27-.16v.19l-.27.24.09.18.21-.3v.15l.3-.06.54-.46.49-.21.3-.09.42-.24.3.09-.06.15.12-.09.49-.06h.45l.12.06H152l.18.15V2h.12l.33.37v.3l.09-.18L153,3l-.15.24.28-.12v.21l.39.55.21.57,0,.24.06.15L154,5l0,.31.09.06.06.3,0,.09v.15h.12l.15.15,0,.52-.15.21.21-.09,0,.21.1.15,0,.45.12-.06-.12.21.15.46,0,.75.09.24.06,1.18-.09,1.21-.18.21.24.18-.12,1.51,0,.4-.12.45v.21l-.15.39.18-.09-.12.3,0,.37-.1.15.1.15-.22.6-.15-.15,0,.33-.66,2-.21.24-.21.36Zm-7.79-7.55.27-.52-.24.09-.06-.18-.09.15Zm0-3.24.15-.15.12.15-.18.43-.09-.21Zm.21-1.75v.15l-.09.09V7.55Zm.09.45v.31l-.12.39,0-.54Zm0,5.29.09-.15,0-.3-.12.24Zm.24-5.13v.15l-.09.15V8.22Zm0-1.85.22-.06.09.06-.13.09-.09.31-.06-.25Zm.28.94-.16.09L146,7Zm3.71,13.44.48-.51,1.91-4.41.51-2.33,0-.45.15-1.12-.06-.15,0-1.36.15-.39.06-.52-.15.07-.06-1.12-.06-.09L152.5,7.1l-.12-.36,0-.52.09-.15-.15.09L152.2,6V5.86h.18l-.21-.54,0-.82H152l0,.3-.21-.54h-.16l.07-.27.33.12.24-.36-.24-.25.09-.12V3l-.12-.15-.18.15.06-.15h-.15l-.1-.06.1-.09-.13-.15-.15.09V2.51l.18-.12-.15-.31-.06.1-.09-.1-.27.16-.57.12-.15.24-.61.24-.12.15h-.12l-.09.21-.51.33v.16l-.25.21-.51,1-.54,1.6v.28l-.18.21.09.06-.46,2.57v.51L147,11l.09,2-.06.21.06.24.06.82.18.45V15l.43,1.82.9,2.44v.15h.16v.16l.12.15.18.09.15.33ZM148.06,2.18l0,.21-.09.09,0-.3Zm1.24,14.34h-.15l.06-.09Zm3-11.57h.18l-.09-.15Zm.24.91-.21-.75,0,.45Zm.61,1.24V6.65l-.1,0,0,.33Zm0,.45.15-.09-.24-.15Zm0,6.92.09-.06.09-.82-.24.46,0,.42,0-.15Zm.24-1.18,0-.6h-.15l0,.36.06-.15Zm.09-4.23-.18-.15,0,.15Zm-.12,1.63.3-.36h-.3l.15-.3.09-.3-.3.15.06.21,0,.09Zm.78-4.07h.15l-.18-.4-.06.09.09.15Zm.58,3.26.15-.09-.09-.06Z"/><path class="cls-1" d="M94.25,44.19h-.31l-.11-.33v-.28l-.12.05-.07-.12V40.8l.12-.14-.05-.17V39.28l.07-.21L93.69,39l.07-.16-.05-.31.09-.18-.09-.12.05-.07L93.71,38V35.84l.09-.35,0-.14V28.74l.07-.35,0,.07h.19l.12.09.07-.16.07.21.35,0,.14.05.11-.05.12.05.12.21,0-.14.07,0h.14l.12.14.24.07.11-.12.38.24h.25l.52.28.18.18.43.26.18.05v.37h.12l.19-.07,0,.07-.16.05,0,.07h.18l.49.49.24.35.18.49.12.12-.09.09.09.09h.19v.12l.42.91v.31l.12-.07v.14l-.12.16.23-.16v.35l.12.53.09-.09.12.21h.09l.07.26v.23l.07,0v.37h.24v.42l0,.31.14,0v.35h-.21l.07.42.14.19-.07.14v.4l.1.09-.1.28.1.28-.1.07-.11-.23,0,.42.14-.12-.14.35v.33l0,.16v.35l.11,0-.23.49.07.11-.14.49-.16.17V41l-.07.16,0-.12-.28.84H100v.19l.11-.07-.3.42h-.12l-.11.19-.12.07-.14.21.07.09-.17.28-.07-.16-.16.33-.21.09h-.14l-.19.35h-.09l-.07.09-.68.4h-.09l-.8.37h-.18l-.19.1-.14-.14-.07.11-.82.12-.89-.56Zm0-1.66.16-.12H94.2Zm0,.82.07-.1V43H94.2v.23Zm.18.46.1-.3h-.1l-.07.12h-.11l0,.11Zm-.18-5.14.11-.07.07-.12-.07,0Zm0,1h.11l.07-.37-.18.11Zm2.61,3.51-.07.09.19-.09L97,43l.18-.19V43l-.07.12.07.07.12-.12V42.9l.12-.23v-.14l.56-.59.12-.37.16,0v.12l.07-.07.09-.3h.17l.11-.17,0-.19-.12.08-.18-.08.18-.18.19-.47-.12.12-.09-.26.26-.79.25-1.92V36l-.37-1.59-1.14-2.64-.19-.19-.17-.37h-.09l-.33-.47-.79-.84-.26-.19v.54l0,.07.11.09-.18.75-.12.26v.28l.07-.05,0-.12v.66l-.14.28.09.09.09.7-.16.33v.7l.12.61v1.54l0,.16.09.1-.11.37.07.1v.28l0,.11,0,.07v.47l.09.16,0,1.13-.21.44.11.3-.14.28v1l0-.61.07.54,0,.07v.28l-.12.25v1.41l-.14.3.19-.09.07.18.11,0,.07,0,.19-.16h.35l.19-.12.07-.11.09-.05.09-.21Zm-.49-13.86h.1l-.1-.17Zm1.08,13.5h.14l0-.11Zm.44-.32.07,0,.17-.32-.07,0h-.12v.12Zm.61-.7.26-.4-.1-.09,0,.11-.21.24Zm.72-9.07v-.19l-.07-.14-.07.14.07.42v-.3Zm.47.61h.14l-.14-.26Zm.75,1.87v-.12l-.14.05Z"/><path class="cls-1" d="M107.27,35.75h.09l.12.07,0,.12-.33.28h-.26l0-.28h-.1l-.14.11h-.3l-.21.24-.21.11-.07.1h-.09l-.14.16h-.28v-.12l-.14.07h-.4v.17h-.38L104,37l-.07-.07-.07.07v.38l0,.14v.26l0,.07.1.07,0,.21v.39l-.12.45.12-.17,0,.07v.47l-.07.35.11.12-.09.21v1l.16.33-.11.18v.12l-.1.21.17.07v.21l.07.14v.12h.14l.67-.31.71-.16.09-.07h.49l.09-.14.07.14.24-.12.37,0,.33-.14.14.07.28-.14.19.14.37.09v.19l-.07.12v.23l-.47.33-.91.25,0,.14h-.3l-.09.12-.38.05-.81.42H105l-.58.37-.28.07-.12.12h-.42l-.09,0h-.42l-.45-.23h-.3l0-.44,0-.31.11-.16,0-.42-.17-.26,0-.33-.12-.14v-.67l0-.52.09-.23-.09-.87,0-.09.12,0-.16-.1,0-.23,0-.17V37.74l0-.12v-.21l.07-.33-.07-.23v-.56l.07-.31,0-.32,0,.09.16-.23h.12l-.07-.12.14-.21.07.33.07-.05v-.33h-.12v-.35l-.09.24v.11l-.12.17h-.21l-.12-.12,0-.16v-.19l.07-.14L101.68,29l-.07-.21v-.4h.23l.17.05h.3l0,.09.11-.09v.09h.17l.09-.09v.09l.16-.09h1.69l0,.09h.21l.17-.09-.07.09h.21l.16,0,.14-.07.33.14.26-.11.07,0h.3l.12,0,0,.09h.33v.12l.12,0-.12.11,0,.19h-.11l-.1.12.07.07-.07.14-.07-.07-.18.07-.1.19-.3.09h-.09l-.14.12-.1.18h-.35l-.16-.07-.14.17h-.17l0,.11-.07-.14-.24.07-.14,0-.09,0-.09,0-.28.11-.35.07.09,1.29v.54l.07.11v1.41l0,.23v.58h.09v.82l1.38-.14.47-.11h.79l.3-.1.24.1.42.35-.07.09,0,.19-.07-.07-.12.11v.12L107,36l-.09.07h.28l0-.18Zm-4.75,7.17,0,.43v-.59Zm0-5.18.07.35,0-.4Zm.16-.26,0-.07-.12-.07Zm.12,4.84-.07-.35-.07.72Zm3.88-6.24-.26.42.16-.42Z"/><text class="cls-2" transform="translate(131.34 184.52)"><tspan class="cls-3">2</tspan><tspan class="cls-4" x="7.58" y="0">0</tspan><tspan class="cls-5" x="20.36" y="0">1</tspan><tspan x="29.27" y="0">9</tspan></text></svg>