<svg width="426" height="127" viewBox="0 0 426 127" fill="none" xmlns="http://www.w3.org/2000/svg">
<g clip-path="url(#clip0)">
<path d="M227.6 5.3999H239.37V43.4199H239.63C241.72 40.2499 244.72 37.7499 248.65 35.9099C252.57 34.0699 256.76 33.1499 261.2 33.1499C265.99 33.1499 270.33 33.9599 274.2 35.5899C278.08 37.2099 281.39 39.4599 284.14 42.3299C286.88 45.1999 288.99 48.5799 290.48 52.4799C291.97 56.3699 292.7 60.5899 292.7 65.1299C292.7 69.5799 291.96 73.7599 290.48 77.6599C289 81.5499 286.89 84.9499 284.14 87.8699C281.39 90.7799 278.08 93.0499 274.2 94.6799C270.32 96.3099 265.99 97.1199 261.2 97.1199C257.02 97.1199 252.94 96.2199 248.98 94.4199C245.01 92.6199 241.9 90.0899 239.63 86.8399H239.37V95.5799H227.6V5.3999ZM259.77 86.3199C262.9 86.3199 265.74 85.7899 268.27 84.7199C270.8 83.6499 272.93 82.1899 274.67 80.3499C276.42 78.5099 277.77 76.2799 278.73 73.6699C279.69 71.0499 280.17 68.2099 280.17 65.1299C280.17 62.0499 279.69 59.1999 278.73 56.5899C277.77 53.9699 276.42 51.7499 274.67 49.9099C272.93 48.0599 270.79 46.6099 268.27 45.5399C265.74 44.4699 262.91 43.9399 259.77 43.9399C256.63 43.9399 253.79 44.4799 251.27 45.5399C248.74 46.6099 246.61 48.0699 244.86 49.9099C243.12 51.7499 241.77 53.9699 240.81 56.5899C239.85 59.1999 239.37 62.0499 239.37 65.1299C239.37 68.2099 239.85 71.0599 240.81 73.6699C241.77 76.2799 243.12 78.5099 244.86 80.3499C246.61 82.1899 248.74 83.6499 251.27 84.7199C253.79 85.7899 256.63 86.3199 259.77 86.3199Z" fill="#6D6E71"/>
<path d="M295.859 64.82C295.859 60.32 296.719 56.13 298.439 52.24C300.149 48.35 302.509 44.93 305.499 41.99C308.489 39.05 312.009 36.74 316.059 35.05C320.109 33.36 324.469 32.52 329.129 32.52C333.789 32.52 338.149 33.37 342.199 35.05C346.249 36.74 349.769 39.05 352.759 41.99C355.749 44.93 358.109 48.34 359.819 52.24C361.539 56.13 362.389 60.33 362.389 64.82C362.389 69.32 361.529 73.53 359.819 77.47C358.109 81.4 355.749 84.82 352.759 87.72C349.769 90.61 346.249 92.9 342.199 94.59C338.159 96.28 333.789 97.12 329.129 97.12C324.469 97.12 320.109 96.28 316.059 94.59C312.009 92.9 308.489 90.62 305.499 87.72C302.509 84.82 300.149 81.41 298.439 77.47C296.719 73.53 295.859 69.32 295.859 64.82ZM308.539 64.82C308.539 67.93 309.019 70.81 309.999 73.44C310.969 76.08 312.329 78.33 314.089 80.18C315.839 82.04 317.999 83.51 320.559 84.59C323.109 85.67 325.969 86.21 329.139 86.21C332.309 86.21 335.169 85.67 337.719 84.59C340.269 83.52 342.419 82.04 344.189 80.18C345.949 78.32 347.309 76.08 348.279 73.44C349.239 70.81 349.729 67.93 349.729 64.82C349.729 61.7 349.239 58.83 348.279 56.19C347.309 53.56 345.939 51.31 344.189 49.44C342.419 47.58 340.269 46.11 337.719 45.03C335.169 43.95 332.309 43.41 329.139 43.41C325.969 43.41 323.109 43.95 320.559 45.03C318.009 46.11 315.849 47.58 314.089 49.44C312.329 51.3 310.959 53.55 309.999 56.19C309.019 58.84 308.539 61.71 308.539 64.82Z" fill="#6D6E71"/>
<path d="M383.62 64.3001L361.44 35.6401H376.75L391.93 57.4301L406.85 35.6401H421.24L399.86 64.3001L425.2 97.1201H409.89L391.4 71.3101L372.92 97.1201H358.27L383.62 64.3001Z" fill="#6D6E71"/>
<path d="M0 0H11.76V97.12H0V0Z" fill="#40DA62"/>
<path d="M219.87 126.41H208.1V88.3799H207.84C205.75 91.5499 202.74 94.0499 198.82 95.8999C194.9 97.7399 190.72 98.6599 186.27 98.6599C181.48 98.6599 177.14 97.8499 173.26 96.2199C169.38 94.5899 166.07 92.3499 163.33 89.4799C160.58 86.6099 158.47 83.2299 156.99 79.3299C155.51 75.4299 154.77 71.2199 154.77 66.6799C154.77 62.2299 155.51 58.0499 156.99 54.1499C158.47 50.2499 160.59 46.8499 163.33 43.9399C166.08 41.0299 169.39 38.7599 173.26 37.1299C177.14 35.5099 181.48 34.6899 186.27 34.6899C190.45 34.6899 194.52 35.5899 198.49 37.3899C202.45 39.1899 205.57 41.7199 207.84 44.9699H208.1V36.2399H219.87V126.41ZM187.71 45.4699C184.57 45.4699 181.74 46.0099 179.21 47.0799C176.68 48.1499 174.55 49.6099 172.8 51.4499C171.05 53.2999 169.7 55.5199 168.75 58.1299C167.79 60.7399 167.31 63.5899 167.31 66.6699C167.31 69.7499 167.79 72.5999 168.75 75.2099C169.71 77.8299 171.06 80.0499 172.8 81.8899C174.54 83.7299 176.68 85.1799 179.21 86.2599C181.74 87.3299 184.57 87.8599 187.71 87.8599C190.84 87.8599 193.68 87.3299 196.2 86.2599C198.73 85.1899 200.86 83.7399 202.61 81.8899C204.35 80.0499 205.7 77.8199 206.66 75.2099C207.62 72.5999 208.1 69.7499 208.1 66.6699C208.1 63.5899 207.62 60.7399 206.66 58.1299C205.7 55.5199 204.35 53.2899 202.61 51.4499C200.86 49.6099 198.73 48.1599 196.2 47.0799C193.68 46.0099 190.84 45.4699 187.71 45.4699Z" fill="#53D893"/>
<path d="M138.94 68.5698C138.73 70.5598 138.32 73.4498 137.67 75.2198C136.71 77.8398 135.36 80.0598 133.62 81.8998C131.88 83.7398 129.74 85.1898 127.21 86.2698C124.68 87.3398 121.85 87.8698 118.71 87.8698C115.57 87.8698 112.74 87.3398 110.21 86.2698C107.68 85.1998 105.55 83.7498 103.8 81.8998C102.05 80.0598 100.7 77.8298 99.7502 75.2198C99.1002 73.4498 98.6902 70.5598 98.4802 68.5698H85.9102C86.2002 71.9498 86.9902 76.1598 88.3202 79.1998C90.0202 83.0998 92.3502 86.4798 95.3102 89.3498C98.2702 92.2198 101.76 94.4898 105.77 96.1598C109.78 97.8298 114.09 98.6598 118.71 98.6598C123.33 98.6598 127.65 97.8298 131.65 96.1598C135.66 94.4898 139.15 92.2198 142.11 89.3498C145.07 86.4798 147.4 83.0998 149.1 79.1998C150.42 76.1598 151.22 71.9498 151.51 68.5698H138.94Z" fill="#51DA87"/>
<path d="M98.5605 64.1799C98.7905 62.4099 99.1705 59.7199 99.7605 58.1299C100.72 55.5199 102.07 53.2899 103.81 51.4499C105.55 49.6099 107.69 48.1599 110.22 47.0799C112.75 46.0099 115.58 45.4699 118.72 45.4699C121.86 45.4699 124.69 46.0099 127.22 47.0799C129.75 48.1499 131.88 49.6099 133.63 51.4499C135.38 53.2999 136.72 55.5199 137.68 58.1299C138.26 59.7199 138.65 62.4099 138.88 64.1799H151.48C151.15 61.0299 150.36 57.0399 149.12 54.2099C147.42 50.3499 145.08 46.9699 142.13 44.0599C139.17 41.1499 135.68 38.8499 131.67 37.1899C127.66 35.5199 123.34 34.6899 118.73 34.6899C114.11 34.6899 109.8 35.5199 105.79 37.1899C101.78 38.8599 98.2905 41.1499 95.3305 44.0599C92.3705 46.9699 90.0405 50.3499 88.3405 54.2099C87.0905 57.0399 86.3105 61.0299 85.9805 64.1799H98.5605Z" fill="#51DA87"/>
<path d="M69.24 68.5698C69.03 70.5598 68.62 73.4498 67.97 75.2198C67.01 77.8398 65.66 80.0598 63.92 81.8998C62.18 83.7398 60.04 85.1898 57.51 86.2698C54.98 87.3398 52.15 87.8698 49.01 87.8698C45.87 87.8698 43.04 87.3398 40.51 86.2698C37.98 85.1998 35.84 83.7498 34.1 81.8998C32.35 80.0598 31 77.8298 30.05 75.2198C29.4 73.4498 28.99 70.5598 28.78 68.5698H16.21C16.5 71.9498 17.29 76.1598 18.62 79.1998C20.32 83.0998 22.65 86.4798 25.62 89.3498C28.58 92.2198 32.07 94.4898 36.08 96.1598C40.09 97.8298 44.4 98.6598 49.03 98.6598C53.65 98.6598 57.96 97.8298 61.97 96.1598C65.98 94.4898 69.47 92.2198 72.43 89.3498C75.39 86.4798 77.72 83.0998 79.42 79.1998C80.74 76.1598 81.54 71.9498 81.83 68.5698H69.24Z" fill="#46DA6E"/>
<path d="M28.8598 64.1799C29.0898 62.4099 29.4698 59.7199 30.0598 58.1299C31.0198 55.5199 32.3698 53.2899 34.1098 51.4499C35.8498 49.6099 37.9898 48.1599 40.5198 47.0799C43.0498 46.0099 45.8798 45.4699 49.0198 45.4699C52.1498 45.4699 54.9798 46.0099 57.5198 47.0799C60.0498 48.1499 62.1798 49.6099 63.9298 51.4499C65.6698 53.2999 67.0198 55.5199 67.9798 58.1299C68.5598 59.7199 68.9498 62.4099 69.1798 64.1799H81.7798C81.4498 61.0299 80.6698 57.0399 79.4198 54.2099C77.7198 50.3499 75.3898 46.9699 72.4298 44.0599C69.4698 41.1499 65.9798 38.8499 61.9698 37.1899C57.9598 35.5199 53.6498 34.6899 49.0298 34.6899C44.4098 34.6899 40.0898 35.5199 36.0798 37.1899C32.0698 38.8599 28.5798 41.1499 25.6198 44.0599C22.6598 46.9699 20.3298 50.3499 18.6198 54.2099C17.3698 57.0399 16.5898 61.0299 16.2598 64.1799H28.8598Z" fill="#46DA6E"/>
<path d="M231.57 109.74C232.45 109.74 232.48 109.85 232.48 110.01V121.35C232.48 125.15 230.89 126.59 228.39 126.59C227.9 126.59 227.15 126.46 226.82 126.26C226.67 126.17 226.67 126.06 226.75 125.6L226.82 125.27C226.91 124.83 227 124.72 227.24 124.76C227.57 124.83 227.95 124.91 228.26 124.91C229.83 124.91 230.49 123.92 230.49 121.39V110C230.49 109.82 230.56 109.73 231.44 109.73H231.57V109.74ZM231.48 104.76C232.25 104.76 232.87 105.38 232.87 106.15C232.87 106.92 232.25 107.54 231.48 107.54C230.71 107.54 230.09 106.92 230.09 106.15C230.09 105.38 230.7 104.76 231.48 104.76Z" fill="#6D6E71"/>
<path d="M236.49 109.74C237.33 109.74 237.42 109.83 237.42 110.01V115.8C237.42 117.55 237.49 118.45 237.97 119.05C238.37 119.54 239.03 119.8 239.94 119.8C240.8 119.8 241.82 119.51 242.35 119C242.81 118.56 243.06 117.89 243.06 115.46V110C243.06 109.85 243.19 109.73 243.94 109.73H244.14C244.89 109.73 245.05 109.82 245.05 110V117.54C245.05 119.04 245.09 120.59 245.09 121.14C245.09 121.32 245.02 121.41 244.18 121.41H244.09C243.32 121.41 243.18 121.32 243.18 121.14L243.14 120.19H243.12C242.3 121.1 241.09 121.63 239.45 121.63C238.26 121.63 237.24 121.23 236.51 120.46C235.74 119.64 235.43 118.49 235.43 116.7V110C235.43 109.85 235.47 109.73 236.31 109.73H236.49V109.74Z" fill="#6D6E71"/>
<path d="M255.08 111.75C254.68 112.32 254.57 112.32 254.42 112.19C253.6 111.61 252.83 111.22 251.85 111.22C250.94 111.22 249.64 111.57 249.64 112.79C249.64 113.98 250.88 114.29 251.94 114.56C253.75 115.02 255.68 115.69 255.68 117.99C255.68 120.36 253.69 121.64 251.26 121.64C249.84 121.64 248.47 121.13 247.63 120.53C247.41 120.38 247.48 120.24 247.72 119.73L247.83 119.49C248.12 118.87 248.21 118.85 248.49 119.03C249.33 119.52 250.39 119.91 251.36 119.91C252.38 119.91 253.79 119.4 253.79 118.12C253.79 116.93 252.37 116.53 251.25 116.29C250.08 116.02 249.22 115.71 248.62 115.16C248.07 114.65 247.74 113.88 247.74 113.02C247.74 110.85 249.62 109.53 251.83 109.53C253.22 109.53 254.5 110.02 255.32 110.75C255.5 110.9 255.54 111.1 255.23 111.55L255.08 111.75Z" fill="#6D6E71"/>
<path d="M259.659 106.47C260.539 106.47 260.569 106.58 260.569 106.74V109.75H263.359C263.509 109.75 263.559 109.86 263.559 110.44V110.62C263.559 111.22 263.519 111.33 263.359 111.33H260.569V117.85C260.569 118.69 260.639 119.24 260.919 119.55C261.159 119.82 261.539 119.95 262.049 119.95C262.559 119.95 263.109 119.8 263.549 119.66C263.769 119.59 263.839 119.68 263.949 120.1L264.019 120.39C264.129 120.85 264.129 120.99 263.949 121.1C263.399 121.45 262.449 121.65 261.629 121.65C260.629 121.65 259.909 121.38 259.419 120.92C258.779 120.32 258.579 119.48 258.579 118V111.32H257.189C257.029 111.32 256.989 111.21 256.989 110.61V110.43C256.989 109.86 257.029 109.74 257.189 109.74H258.579V106.73C258.579 106.55 258.649 106.46 259.529 106.46H259.659V106.47Z" fill="#6D6E71"/>
<path d="M279.66 109.74C280.5 109.74 280.52 109.83 280.52 110.01C280.52 110.54 280.48 111.96 280.48 113.37V116.47C280.48 118.5 280.57 119.94 280.63 121.16C280.63 121.34 280.52 121.43 279.83 121.43H279.74C279.05 121.43 278.92 121.36 278.9 121.16L278.77 120.14C278.06 121 276.8 121.64 275.36 121.64C272.13 121.64 270.63 118.96 270.63 115.78C270.63 112 272.8 109.52 275.71 109.52C277.04 109.52 278.08 110.14 278.7 110.94L278.81 110.01C278.83 109.74 278.94 109.74 279.61 109.74H279.66ZM278.49 112.81C277.98 112.01 276.99 111.31 275.95 111.31C273.92 111.31 272.72 113.01 272.72 115.67C272.72 117.75 273.45 119.87 275.73 119.87C276.46 119.87 277.34 119.65 277.94 119.01C278.4 118.5 278.49 117.88 278.49 115.96V112.81Z" fill="#6D6E71"/>
<path d="M290.519 111.75C290.119 112.32 290.009 112.32 289.859 112.19C289.039 111.61 288.269 111.22 287.289 111.22C286.379 111.22 285.079 111.57 285.079 112.79C285.079 113.98 286.319 114.29 287.379 114.56C289.189 115.02 291.119 115.69 291.119 117.99C291.119 120.36 289.129 121.64 286.699 121.64C285.279 121.64 283.909 121.13 283.069 120.53C282.849 120.38 282.919 120.24 283.159 119.73L283.269 119.49C283.559 118.87 283.649 118.85 283.929 119.03C284.769 119.52 285.829 119.91 286.799 119.91C287.819 119.91 289.229 119.4 289.229 118.12C289.229 116.93 287.809 116.53 286.689 116.29C285.519 116.02 284.659 115.71 284.059 115.16C283.509 114.65 283.179 113.88 283.179 113.02C283.179 110.85 285.059 109.53 287.269 109.53C288.659 109.53 289.939 110.02 290.759 110.75C290.939 110.9 290.979 111.1 290.669 111.55L290.519 111.75Z" fill="#6D6E71"/>
<path d="M294.619 104.61C295.499 104.61 295.529 104.72 295.529 104.88V114.52L296.879 113.26C298.069 112.13 298.739 111.38 299.799 109.99C299.929 109.81 300.039 109.75 300.859 109.75C301.659 109.75 301.919 109.88 301.809 110.08C301.369 110.9 299.929 112.67 298.139 114.39L302.269 121.11C302.359 121.26 302.249 121.42 301.409 121.42H301.249C300.409 121.42 300.189 121.35 300.079 121.18L296.649 115.63L295.519 116.63V121.16C295.519 121.31 295.499 121.43 294.609 121.43H294.479C293.599 121.43 293.529 121.34 293.529 121.16V104.89C293.529 104.71 293.599 104.62 294.479 104.62H294.619V104.61Z" fill="#6D6E71"/>
</g>
<defs>
<clipPath id="clip0">
<rect width="425.2" height="126.59" fill="white"/>
</clipPath>
</defs>
</svg>
