<?xml version="1.0" encoding="utf-8"?>
<!-- Generator: Adobe Illustrator 16.0.3, SVG Export Plug-In . SVG Version: 6.00 Build 0)  -->
<!DOCTYPE svg PUBLIC "-//W3C//DTD SVG 1.1//EN" "http://www.w3.org/Graphics/SVG/1.1/DTD/svg11.dtd">
<svg version="1.1" id="Layer_1" xmlns="http://www.w3.org/2000/svg" xmlns:xlink="http://www.w3.org/1999/xlink" x="0px" y="0px"
	 width="650.01px" height="126.443px" viewBox="0 0 650.01 126.443" enable-background="new 0 0 650.01 126.443"
	 xml:space="preserve">
<g>
	<path fill="#FF4600" d="M236.912,97.475c-18.414,0-32.337-13.025-32.337-33.685c0-20.66,14.372-34.134,32.562-34.134
		c18.414,0,32.336,13.249,32.336,33.684C269.473,84.001,255.326,97.475,236.912,97.475 M393.656,52.338
		c-6.962,2.246-10.555,4.94-10.555,10.779c0,7.635,5.165,9.656,12.801,11.003c6.287,1.123,16.168,2.92,16.168,12.8
		c0,8.086-7.635,11.005-15.271,11.005h-40.421c-2.021,0-3.368-1.348-3.368-3.369V32.576c0-2.021,1.348-3.368,3.368-3.368h33.685
		c8.533,0,15.495,2.695,15.495,11.004C405.558,47.622,399.494,50.541,393.656,52.338 M320.898,17.531v92.07
		c0,10.779,6.063,16.842,16.842,16.842h58.835c29.867,0,46.934-13.249,46.934-35.93c0-13.922-5.839-23.803-18.863-30.091
		c8.309-6.288,12.351-15.046,12.351-25.6c0-21.333-15.27-34.133-44.237-34.133H337.74C326.96,0.689,320.898,6.752,320.898,17.531
		 M16.393,127.566c9.656,0,16.393-6.737,16.393-16.618V43.355l35.48,21.109c1.572,0.898,4.267,2.47,8.309,2.47
		c3.593,0,6.737-1.796,7.86-2.47l35.93-21.559v67.369c0,12.126,8.084,17.291,16.393,17.291c9.656,0,16.393-6.961,16.393-16.618
		V16.183c0-10.778-6.962-15.719-15.72-15.719c-2.919,0-5.614,0.674-8.308,2.246L78.821,31.903c-1.123,0.673-1.797,0.673-2.92,0
		l-51.2-28.969c-2.694-1.571-5.389-2.47-8.533-2.47C7.41,0.464,0,5.405,0,16.633v93.642C0,121.278,6.961,127.566,16.393,127.566
		 M646.287,26.064c2.472-3.817,3.595-7.41,3.595-11.003c0-4.716-2.246-8.758-6.064-11.453c-3.145-2.245-6.512-3.368-9.656-3.368
		c-4.939,0-9.656,2.47-13.473,7.41l-37.053,48.73c-6.737,8.983-11.453,16.618-11.453,28.744v25.151
		c0,12.126,8.084,17.291,16.393,17.291c9.656,0,16.618-6.961,16.618-16.618V82.878c0-1.797,0.449-3.145,1.572-4.717L646.287,26.064z
		 M559.381,7.65l17.517,22.905c3.144,4.043,4.267,7.86,4.267,11.229c0,4.491-2.471,8.533-6.288,11.452
		c-2.919,2.246-6.288,3.593-9.207,3.593c-4.716,0-9.207-2.695-13.249-7.635l-18.414-22.456c-2.92-3.593-4.267-7.186-4.267-10.779
		c0-4.491,2.47-8.982,6.063-11.902c2.92-2.47,6.513-3.817,9.881-3.817C550.624,0.24,555.565,2.71,559.381,7.65 M540.519,95.229
		h-45.811c-2.021,0-3.368-1.347-3.368-3.368V17.306c0-12.126-8.084-17.291-16.394-17.291c-9.656,0-16.617,6.962-16.617,16.618
		v92.968c0,10.779,6.063,16.842,16.842,16.842h64.674c12.127,0,17.292-7.186,17.292-15.495
		C557.137,101.292,550.174,95.229,540.519,95.229 M236.912,127.566c37.277,0,66.246-27.846,66.246-64.225
		c0-36.603-28.295-63.775-65.797-63.775c-37.277,0-66.47,27.846-66.47,64.449C170.891,100.619,199.41,127.566,236.912,127.566"/>
</g>
</svg>
