<?xml version="1.0" encoding="iso-8859-1"?>
<!-- Generator: Adobe Illustrator 16.0.0, SVG Export Plug-In . SVG Version: 6.00 Build 0)  -->
<!DOCTYPE svg PUBLIC "-//W3C//DTD SVG 1.1//EN" "http://www.w3.org/Graphics/SVG/1.1/DTD/svg11.dtd">
<svg version="1.1" id="Capa_1" xmlns="http://www.w3.org/2000/svg" xmlns:xlink="http://www.w3.org/1999/xlink" x="0px" y="0px"
	 width="612px" height="612px" viewBox="0 0 612 612" style="enable-background:new 0 0 612 612;" xml:space="preserve">
<g>
	<path d="M600.388,112.121c-7.707-7.883-17.246-11.945-28.525-11.945H420.275V50.088c0-10.282-7.961-18.576-18.243-18.576h-1.996
		h-1.988H213.952h-1.989h-1.996c-10.282,0-18.576,8.294-18.576,18.576v50.087H40.138c-11.28,0-20.819,4.062-28.533,11.945
		C4.062,119.827,0,129.366,0,140.313V540.35c0,10.948,3.892,20.649,11.605,28.526c7.551,7.713,17.252,11.612,28.533,11.612h531.724
		c11.279,0,20.981-3.899,28.525-11.612C608.101,560.992,612,551.298,612,540.35V140.313
		C612,129.366,607.938,119.827,600.388,112.121z M228.211,68.331h155.57v31.844h-155.57V68.331z M130.357,543.669H40.138
		c-1.663,0-3.651-1.988-3.651-3.319V140.313c0-2.321,1.323-3.319,3.651-3.319h90.219V543.669z M444.816,543.669H167.841V136.995
		h276.975V543.669z M575.181,540.35c0,2.321-0.998,3.319-3.318,3.319h-90.227V136.995h90.227c2.32,0,3.318,0.998,3.318,3.319V540.35
		z"/>
</g>
<g>
</g>
<g>
</g>
<g>
</g>
<g>
</g>
<g>
</g>
<g>
</g>
<g>
</g>
<g>
</g>
<g>
</g>
<g>
</g>
<g>
</g>
<g>
</g>
<g>
</g>
<g>
</g>
<g>
</g>
</svg>
